<svg width="60" height="60" viewBox="0 0 60 60" fill="none" xmlns="http://www.w3.org/2000/svg">
<circle cx="30" cy="30" r="30" fill="#352C70"/>
<path fill-rule="evenodd" clip-rule="evenodd" d="M34.921 23.665L36.293 22.293C36.105 21.901 36 21.463 36 21C36 19.344 37.344 18 39 18C40.656 18 42 19.344 42 21C42 22.656 40.656 24 39 24C38.537 24 38.099 23.895 37.707 23.707L36.34 25.074C37.404 26.432 38.038 28.143 38.038 30C38.038 31.857 37.404 33.568 36.34 34.926L37.707 36.293C38.099 36.105 38.537 36 39 36C40.656 36 42 37.344 42 39C42 40.656 40.656 42 39 42C37.344 42 36 40.656 36 39C36 38.537 36.105 38.099 36.293 37.707L34.921 36.335C33.57 37.379 31.876 38 30.038 38C28.181 38 26.47 37.366 25.112 36.302L23.707 37.707C23.895 38.099 24 38.537 24 39C24 40.656 22.656 42 21 42C19.344 42 18 40.656 18 39C18 37.344 19.344 36 21 36C21.463 36 21.901 36.105 22.293 36.293L23.703 34.883C22.659 33.532 22.038 31.838 22.038 30C22.038 28.162 22.659 26.468 23.703 25.117L22.293 23.707C21.901 23.895 21.463 24 21 24C19.344 24 18 22.656 18 21C18 19.344 19.344 18 21 18C22.656 18 24 19.344 24 21C24 21.463 23.895 21.901 23.707 22.293L25.112 23.698C26.47 22.634 28.181 22 30.038 22C31.876 22 33.57 22.621 34.921 23.665V23.665ZM30.188 26.478C30.11 26.242 30.287 26 30.532 26C30.684 26 30.826 26.096 30.876 26.249L33.011 31.606C33.074 31.797 32.971 32.003 32.781 32.066C32.591 32.129 32.385 32.026 32.322 31.836C32.322 31.836 30.974 31.385 29.376 31.915L30.427 33.548C30.536 33.708 30.46 33.927 30.278 33.987L29.564 34.225L29.414 34.25C29.28 34.25 29.15 34.193 29.057 34.089L27.614 32.496C26.828 32.744 25.938 32.458 25.641 31.718C25.573 31.548 25.538 31.367 25.538 31.185C25.538 30.657 25.833 30.119 26.472 29.805C29.675 28.232 30.188 26.478 30.188 26.478ZM32.463 26.821C33.032 27.061 33.509 27.52 33.76 28.139C34.011 28.758 33.987 29.422 33.747 29.992L34.3 30.227C34.455 29.857 34.538 29.457 34.538 29.049C34.538 27.861 33.836 26.749 32.696 26.267L32.463 26.821ZM32.064 27.767C32.391 27.905 32.667 28.169 32.811 28.526C32.955 28.883 32.942 29.264 32.804 29.592L33.343 29.821C33.539 29.354 33.559 28.812 33.353 28.305C33.148 27.798 32.758 27.423 32.292 27.226L32.064 27.767Z" fill="#F2F2F2"/>
</svg>
