<svg width="60" height="60" viewBox="0 0 60 60" fill="none" xmlns="http://www.w3.org/2000/svg">
<circle cx="30" cy="30" r="30" fill="#AB00F2"/>
<path d="M38 38H22.75C22.336 38 22 38.336 22 38.75C22 39.164 22.336 39.5 22.75 39.5H38.5C39.03 39.5 39.5 39.03 39.5 38.5V22.75C39.5 22.336 39.164 22 38.75 22C38.336 22 38 22.336 38 22.75V38ZM37 21C37 20.522 36.621 20 36 20H21C20.38 20 20 20.519 20 21V36C20 36.621 20.52 37 21 37H36C36.478 37 37 36.621 37 36V21ZM24.249 29.306C24.084 29.159 24 28.955 24 28.75C24 28.339 24.333 28.004 24.748 28.004C24.926 28.004 25.103 28.066 25.247 28.194L27.618 30.205L32.071 25.243C32.22 25.082 32.421 25 32.625 25C33.042 25 33.373 25.336 33.373 25.746C33.373 25.925 33.308 26.105 33.177 26.249L28.224 31.757C28.076 31.918 27.874 32 27.671 32C27.494 32 27.315 31.937 27.173 31.81L24.249 29.306Z" fill="#F2F2F2"/>
</svg>
