<svg width="60" height="60" viewBox="0 0 60 60" fill="none" xmlns="http://www.w3.org/2000/svg">
<circle cx="30" cy="30" r="30" fill="#352C70"/>
<path d="M41 18L36.5 34.5L30.403 29.07L36.255 22.895L28.411 28.316L23 27L41 18ZM30 30.501V36L32.193 32.677L30 30.501ZM27.211 34.358L28.151 35.292C27.276 36.177 26.378 37.225 26.026 38.667L24.74 38.353C25.174 36.579 26.231 35.349 27.211 34.358ZM25.646 42C24.931 42 24.293 41.721 23.759 41.17C22.301 41.685 20.915 41.126 20.183 40.086C19.608 39.269 19.48 38.233 19.83 37.241C19.278 36.707 19 36.075 19 35.357C19 33.795 20.16 32.554 22.24 32.771L22.435 33.888C21.771 33.95 21.158 33.985 20.761 34.382C20.093 35.05 20.294 36.445 21.548 36.815C20.716 37.651 20.797 38.852 21.421 39.511C22.075 40.201 23.324 40.31 24.186 39.452C24.571 40.757 25.984 40.874 26.619 40.239C27.011 39.847 27.05 39.244 27.111 38.59L28.236 38.819C28.436 40.798 27.227 42 25.646 42ZM22.328 34.968L22.642 36.255C24.397 35.825 25.595 34.805 26.631 33.784L25.693 32.853C24.817 33.719 23.766 34.617 22.328 34.968V34.968Z" fill="#F2F2F2"/>
</svg>
