<svg width="225" height="32" viewBox="0 0 225 32" fill="none" xmlns="http://www.w3.org/2000/svg">
<path d="M35.34 8.58V23C35.34 28.18 31.5133 30.77 23.86 30.77H1.43C0.48 30.77 0 30.28 0 29.28V11C0 9.66 0.739999 9 2.21 9C3.68 9 4.45 9.67 4.45 11V27.32H23.76C28.5733 27.32 30.98 25.91 30.98 23.09V8.58C30.98 6.06 28.61 4.81 23.86 4.81H1.86C0.650001 4.81 0.0400009 4.24 0.0400009 3.12C0.00233984 2.87057 0.0230784 2.61582 0.10059 2.37578C0.178101 2.13573 0.310268 1.91694 0.486687 1.73665C0.663105 1.55635 0.87896 1.41947 1.11726 1.33676C1.35557 1.25405 1.60982 1.22776 1.86 1.25999H23.96C31.54 1.25999 35.3333 3.7 35.34 8.58ZM79.75 1.75C79.3169 1.39204 78.7719 1.1974 78.21 1.2C77.8626 1.19109 77.5186 1.27021 77.21 1.42999C76.88 1.59785 76.603 1.85403 76.41 2.17L60.41 27.08L44.22 2.14C44.005 1.79497 43.71 1.50684 43.36 1.3C43.0787 1.13076 42.7582 1.0377 42.43 1.03C42.1513 1.03128 41.8757 1.08912 41.62 1.2C41.3664 1.30458 41.1354 1.45741 40.94 1.64999C40.7403 1.8497 40.5778 2.08334 40.46 2.34C40.3491 2.59572 40.2913 2.87127 40.29 3.14999C40.2929 3.52981 40.4039 3.90096 40.61 4.22L57.51 29.42C57.8333 29.9161 58.2771 30.3221 58.8 30.6C59.2754 30.8485 59.8036 30.9788 60.34 30.98C60.8804 30.9754 61.4118 30.8417 61.89 30.59C62.4272 30.2978 62.8788 29.8704 63.2 29.35L80.04 4.19C80.2507 3.89668 80.3754 3.55035 80.4 3.19C80.4154 2.9154 80.3644 2.64111 80.2513 2.39043C80.1381 2.13974 79.9662 1.92006 79.75 1.75V1.75ZM152.8 1.25999H124.13C123.904 1.23239 123.675 1.25765 123.46 1.33377C123.246 1.40989 123.052 1.5348 122.894 1.69865C122.736 1.86251 122.618 2.06083 122.55 2.27798C122.481 2.49514 122.464 2.72518 122.5 2.95C122.5 4.19 123.04 4.81 124.13 4.81H152.8C153.84 4.81 154.36 4.19 154.36 2.95C154.36 1.83 153.84 1.25999 152.8 1.25999V1.25999ZM138.43 6.33C138.134 6.28837 137.832 6.31606 137.549 6.41089C137.265 6.50572 137.008 6.6651 136.796 6.87646C136.585 7.08783 136.426 7.34541 136.331 7.62889C136.236 7.91237 136.208 8.21399 136.25 8.50999V29.15C136.25 30.39 136.99 31.01 138.46 31.01C139.93 31.01 140.64 30.39 140.64 29.15V8.50999C140.681 8.21153 140.651 7.90771 140.554 7.6226C140.457 7.3375 140.295 7.07895 140.08 6.86742C139.866 6.65589 139.605 6.4972 139.318 6.40392C139.032 6.31063 138.728 6.28533 138.43 6.33V6.33ZM162.3 26.08C160.3 26.08 159.36 26.82 159.36 28.31C159.36 29.8 160.36 30.64 162.3 30.64C164.24 30.64 165.3 29.87 165.3 28.31C165.3 26.75 164.28 26.08 162.3 26.08V26.08ZM177.21 0C175.61 0 174.81 0.629994 174.81 1.89999V29.2C174.81 30.44 175.57 31.06 177.11 31.06C178.65 31.06 179.44 30.44 179.44 29.2V1.89999C179.48 0.629994 178.74 0 177.21 0ZM222.3 16.72C221.986 16.6739 221.666 16.7029 221.366 16.8049C221.066 16.9068 220.794 17.0786 220.573 17.3062C220.353 17.5338 220.189 17.8106 220.096 18.1138C220.004 18.417 219.984 18.7379 220.04 19.05V22.57C220.04 25.5233 217.46 26.9967 212.3 26.99H201.59C196.323 26.99 193.687 25.5167 193.68 22.57V19.05C193.68 18.4374 193.437 17.8498 193.003 17.4166C192.57 16.9834 191.983 16.74 191.37 16.74C190.757 16.74 190.17 16.9834 189.737 17.4166C189.303 17.8498 189.06 18.4374 189.06 19.05V22.7C189.06 28.0333 193.563 30.7 202.57 30.7H211.12C220.127 30.7 224.633 28.0333 224.64 22.7V19.11C224.709 18.7898 224.698 18.4575 224.608 18.1425C224.518 17.8275 224.353 17.5393 224.126 17.3033C223.899 17.0673 223.617 16.8906 223.306 16.7889C222.994 16.6872 222.663 16.6636 222.34 16.72H222.3ZM211.12 0H202.57C193.557 0 189.053 2.69334 189.06 8.08V11.45C189.06 13.03 189.82 13.82 191.35 13.82C191.67 13.8645 191.996 13.8334 192.302 13.7294C192.607 13.6254 192.885 13.4512 193.111 13.2209C193.337 12.9906 193.507 12.7105 193.606 12.403C193.704 12.0955 193.73 11.7691 193.68 11.45V8.25C193.68 5.19667 196.317 3.67333 201.59 3.67999H212.64C217.6 3.67999 220.08 5.20333 220.08 8.25V11.56C220.037 11.8669 220.065 12.1797 220.163 12.4736C220.262 12.7676 220.427 13.0347 220.646 13.2539C220.865 13.473 221.132 13.6382 221.426 13.7365C221.72 13.8347 222.033 13.8633 222.34 13.82C222.658 13.8593 222.98 13.8244 223.282 13.7181C223.584 13.6118 223.857 13.4369 224.08 13.2073C224.303 12.9776 224.469 12.6994 224.566 12.3945C224.664 12.0896 224.689 11.7663 224.64 11.45V8C224.64 2.66667 220.133 0 211.12 0ZM106.87 14H94.65C91.4433 14 89.84 13.2633 89.84 11.79V7.63C89.84 5.79 91 4.87 93.32 4.87H114.65C115.43 4.87 115.82 4.24999 115.82 3.00999C115.82 1.88999 115.43 1.32001 114.65 1.32001H93.02H92.87C87.9233 1.58001 85.45 3.58001 85.45 7.32001V12.19C85.45 15.6967 88.7633 17.4533 95.39 17.46H107.39C111.16 17.46 113.04 18.46 113.04 20.39V23.8C113.04 26.14 111.543 27.31 108.55 27.31H88.44C88.2101 27.2826 87.977 27.3087 87.7589 27.3864C87.5408 27.464 87.3436 27.5912 87.1829 27.7578C87.0221 27.9243 86.902 28.1259 86.8321 28.3466C86.7623 28.5673 86.7444 28.8012 86.78 29.03C86.78 30.25 87.34 30.85 88.44 30.85H108.01C114.337 30.85 117.5 28.9 117.5 25V20C117.5 16 113.957 13.98 106.87 13.94V14Z" fill="url(#paint0_linear_101_9)"/>
<defs>
<linearGradient id="paint0_linear_101_9" x1="48.07" y1="78.16" x2="172.93" y2="-46.7" gradientUnits="userSpaceOnUse">
<stop stop-color="#8F519F"/>
<stop offset="0.14" stop-color="#84489B"/>
<stop offset="0.24" stop-color="#783E97"/>
<stop offset="0.37" stop-color="#763B96"/>
<stop offset="0.52" stop-color="#6E2C90"/>
<stop offset="0.72" stop-color="#411B59"/>
</linearGradient>
</defs>
</svg>
