<svg width="225" height="32" viewBox="0 0 225 32" fill="none" xmlns="http://www.w3.org/2000/svg">
<path d="M30.9983 8.6599C30.9983 6.1399 28.6283 4.8899 23.8883 4.8899H1.83827C0.628269 4.8899 0.0182693 4.3199 0.0182693 3.1999C-0.0193918 2.95047 0.00135054 2.69573 0.0788619 2.45568C0.156373 2.21563 0.288537 1.99685 0.464955 1.81655C0.641373 1.63625 0.857228 1.49937 1.09553 1.41666C1.33384 1.33395 1.58809 1.30767 1.83827 1.3399H23.9783C31.5716 1.3399 35.3649 3.7799 35.3583 8.6599V23.0799C35.3583 28.2599 31.5349 30.8499 23.8883 30.8499H1.44827C0.49827 30.8499 0.0182693 30.3599 0.0182693 29.3599V11.0799C0.0182693 9.7399 0.758268 9.0799 2.22827 9.0799C3.69827 9.0799 4.47827 9.7499 4.47827 11.0799V27.3999H23.7883C28.6016 27.3999 31.0049 25.9899 30.9983 23.1699V8.6599Z" fill="#6F2C90"/>
<path d="M40.6884 4.29999C40.4788 3.98202 40.3643 3.61079 40.3584 3.22998C40.3583 2.95005 40.4198 2.67353 40.5384 2.41998C40.6561 2.16572 40.8149 1.9326 41.0084 1.72998C41.2056 1.53964 41.4361 1.38712 41.6884 1.27998C41.9474 1.16831 42.2264 1.11047 42.5084 1.10999C42.8336 1.11662 43.1512 1.20982 43.4284 1.37999C43.7806 1.58388 44.0763 1.87264 44.2884 2.21999L60.4784 27.16L76.4784 2.24998C76.6653 1.93266 76.9395 1.67577 77.2684 1.50998C77.5779 1.35258 77.9213 1.27361 78.2684 1.27998C78.8333 1.27758 79.3814 1.47206 79.8184 1.82999C80.0363 1.99245 80.2131 2.20372 80.3347 2.44684C80.4563 2.68996 80.5192 2.95816 80.5184 3.22998C80.4938 3.59033 80.3691 3.93666 80.1584 4.22998L63.2384 29.43C62.9137 29.9511 62.4587 30.3785 61.9184 30.67C61.4427 30.923 60.9122 31.0553 60.3734 31.0553C59.8346 31.0553 59.3041 30.923 58.8284 30.67C58.3106 30.3886 57.8708 29.9832 57.5484 29.49L40.6484 4.28999" fill="#6F2C90"/>
<path d="M124.148 4.88997C123.068 4.88997 122.528 4.26997 122.528 3.02997C122.528 1.90997 123.068 1.33997 124.148 1.33997H152.828C153.828 1.33997 154.388 1.90997 154.388 3.02997C154.388 4.14997 153.868 4.88997 152.828 4.88997H124.148ZM140.668 29.23C140.668 30.47 139.938 31.09 138.488 31.09C137.038 31.09 136.278 30.47 136.278 29.23V8.58997C136.316 8.03342 136.564 7.51194 136.971 7.13103C137.379 6.75011 137.916 6.53821 138.473 6.53821C139.031 6.53821 139.568 6.75011 139.976 7.13103C140.383 7.51194 140.631 8.03342 140.668 8.58997V29.23Z" fill="#6F2C90"/>
<path d="M165.298 28.3899C165.298 29.9499 164.298 30.7199 162.298 30.7199C160.298 30.7199 159.358 29.9499 159.358 28.3899C159.358 26.8299 160.358 26.1599 162.298 26.1599C164.238 26.1599 165.298 26.8999 165.298 28.3899Z" fill="#6F2C90"/>
<path d="M179.498 29.28C179.498 30.52 178.728 31.14 177.168 31.14C175.608 31.14 174.878 30.52 174.878 29.28V1.97995C174.878 0.70995 175.668 0.0799561 177.268 0.0799561C178.868 0.0799561 179.498 0.70995 179.498 1.97995V29.28Z" fill="#6F2C90"/>
<path d="M220.098 8.29001C220.098 5.23668 217.622 3.71333 212.668 3.72H201.618C196.352 3.72 193.715 5.24334 193.708 8.29001V11.49C193.729 11.8068 193.685 12.1245 193.578 12.4235C193.471 12.7224 193.304 12.9962 193.087 13.228C192.87 13.4597 192.607 13.6445 192.316 13.7708C192.025 13.8971 191.711 13.9622 191.393 13.9622C191.076 13.9622 190.762 13.8971 190.47 13.7708C190.179 13.6445 189.917 13.4597 189.7 13.228C189.483 12.9962 189.316 12.7224 189.209 12.4235C189.102 12.1245 189.057 11.8068 189.078 11.49V8.08C189.078 2.69334 193.585 0 202.598 0H211.148C220.155 0 224.658 2.69334 224.658 8.08V11.45C224.658 13.03 223.898 13.82 222.368 13.82C222.061 13.8651 221.747 13.8378 221.451 13.7403C221.156 13.6428 220.888 13.4778 220.667 13.2585C220.447 13.0391 220.281 12.7713 220.182 12.4765C220.083 12.1817 220.055 11.8679 220.098 11.56V8.29001ZM224.658 22.72C224.658 28.0533 220.155 30.72 211.148 30.72H202.598C193.592 30.72 189.085 28.0533 189.078 22.72V19.07C189.057 18.7532 189.102 18.4355 189.209 18.1365C189.316 17.8376 189.483 17.5638 189.7 17.332C189.917 17.1003 190.179 16.9155 190.47 16.7892C190.762 16.6629 191.076 16.5978 191.393 16.5978C191.711 16.5978 192.025 16.6629 192.316 16.7892C192.607 16.9155 192.87 17.1003 193.087 17.332C193.304 17.5638 193.471 17.8376 193.578 18.1365C193.685 18.4355 193.729 18.7532 193.708 19.07V22.59C193.708 25.5433 196.345 27.0167 201.618 27.01H212.358C217.518 27.01 220.098 25.5367 220.098 22.59V19.07C220.098 18.4653 220.338 17.8854 220.766 17.4578C221.194 17.0302 221.774 16.79 222.378 16.79C222.983 16.79 223.563 17.0302 223.99 17.4578C224.418 17.8854 224.658 18.4653 224.658 19.07V22.72Z" fill="#6F2C90"/>
<path d="M117.528 25.08C117.528 28.98 114.365 30.93 108.038 30.93H88.4683C87.3583 30.93 86.8083 30.33 86.8083 29.11C86.8083 27.89 87.3583 27.39 88.4683 27.39H108.588C111.582 27.39 113.075 26.22 113.068 23.88V20.47C113.068 18.47 111.188 17.54 107.428 17.54H95.4283C88.8083 17.54 85.4983 15.7834 85.4983 12.27V7.40002C85.4983 3.40002 88.3383 1.40002 94.0483 1.40002H94.7883C95.8983 1.40002 96.4483 2.01002 96.4483 3.22002C96.4483 4.43002 95.8983 4.95001 94.7883 4.95001H93.3383C91.0183 4.95001 89.8583 5.87002 89.8583 7.71002V11.87C89.8583 13.34 91.4683 14.08 94.6683 14.08H106.898C113.992 14.08 117.535 16.08 117.528 20.08V25.08Z" fill="#6F2C90"/>
<path d="M93.0484 4.88997C92.2284 4.88997 91.8184 4.26997 91.8184 3.02997C91.8184 1.90997 92.2284 1.33997 93.0484 1.33997H114.668C115.458 1.33997 115.848 1.90997 115.848 3.02997C115.848 4.14997 115.458 4.88997 114.668 4.88997H93.0484Z" fill="#6F2C90"/>
</svg>
