<svg width="145" height="20" viewBox="0 0 145 20" fill="none" xmlns="http://www.w3.org/2000/svg">
<path d="M22.7563 5.52488V14.8103C22.7563 18.1458 20.2922 19.8136 15.364 19.8136H0.920813C0.309084 19.8136 0 19.4981 0 18.8541V7.08318C0 6.22032 0.476504 5.79533 1.42307 5.79533C2.36964 5.79533 2.86547 6.22676 2.86547 7.08318V17.592H15.2997C18.3991 17.592 19.9488 16.6841 19.9488 14.8682V5.52488C19.9488 3.90219 18.4227 3.09728 15.364 3.09728H1.1977C0.418552 3.09728 0.0257576 2.73024 0.0257576 2.00904C0.00150668 1.84843 0.0148607 1.68439 0.0647722 1.52982C0.114684 1.37525 0.19979 1.23437 0.31339 1.11827C0.42699 1.00217 0.565984 0.914034 0.719434 0.860774C0.872884 0.807515 1.0366 0.790588 1.1977 0.811342H15.4284C20.3094 0.811342 22.752 2.38252 22.7563 5.52488ZM51.353 1.12687C51.0741 0.896372 50.7232 0.771038 50.3614 0.772708C50.1377 0.766972 49.9162 0.817918 49.7174 0.920808C49.5049 1.0289 49.3266 1.19386 49.2023 1.39732L38.8995 17.4375L28.4744 1.378C28.3359 1.15583 28.146 0.970292 27.9206 0.837105C27.7395 0.728127 27.5331 0.668204 27.3217 0.663242C27.1423 0.66407 26.9648 0.701309 26.8002 0.772708C26.6368 0.840053 26.4881 0.93846 26.3623 1.06247C26.2337 1.19107 26.1291 1.34152 26.0532 1.50678C25.9818 1.67145 25.9446 1.84889 25.9437 2.02836C25.9456 2.27293 26.0171 2.51192 26.1498 2.71737L37.0321 18.9443C37.2403 19.2637 37.5261 19.5252 37.8628 19.7041C38.1689 19.8641 38.509 19.948 38.8544 19.9488C39.2024 19.9458 39.5446 19.8597 39.8525 19.6977C40.1984 19.5095 40.4892 19.2343 40.6961 18.8992L51.5397 2.69805C51.6755 2.50917 51.7557 2.28616 51.7716 2.05412C51.7815 1.8773 51.7487 1.70068 51.6758 1.53926C51.6029 1.37783 51.4922 1.23637 51.353 1.12687V1.12687ZM98.3917 0.811342H79.9304C79.7849 0.793568 79.6372 0.809831 79.4991 0.858849C79.3609 0.907866 79.2361 0.988298 79.1343 1.09381C79.0325 1.19931 78.9567 1.32702 78.9127 1.46685C78.8687 1.60668 78.8578 1.75481 78.8808 1.89958C78.8808 2.69804 79.2285 3.09728 79.9304 3.09728H98.3917C99.0614 3.09728 99.3962 2.69804 99.3962 1.89958C99.3962 1.17838 99.0614 0.811342 98.3917 0.811342V0.811342ZM89.1385 4.07605C88.9479 4.04924 88.7537 4.06707 88.5712 4.12813C88.3886 4.1892 88.2228 4.29182 88.0867 4.42793C87.9506 4.56403 87.8479 4.7299 87.7869 4.91244C87.7258 5.09497 87.708 5.2892 87.7348 5.4798V18.7704C87.7348 19.5689 88.2113 19.9681 89.1578 19.9681C90.1044 19.9681 90.5616 19.5689 90.5616 18.7704V5.4798C90.5877 5.28761 90.5688 5.09197 90.5062 4.90839C90.4436 4.7248 90.3391 4.55831 90.201 4.4221C90.063 4.28589 89.8951 4.18371 89.7106 4.12364C89.5262 4.06358 89.3303 4.04728 89.1385 4.07605V4.07605ZM104.509 16.7936C103.221 16.7936 102.616 17.2701 102.616 18.2295C102.616 19.189 103.26 19.7299 104.509 19.7299C105.758 19.7299 106.441 19.234 106.441 18.2295C106.441 17.225 105.784 16.7936 104.509 16.7936V16.7936ZM114.11 0C113.08 0 112.565 0.405669 112.565 1.22345V18.8026C112.565 19.6011 113.054 20.0003 114.046 20.0003C115.037 20.0003 115.546 19.6011 115.546 18.8026V1.22345C115.572 0.405669 115.095 0 114.11 0ZM143.144 10.7664C142.943 10.7367 142.736 10.7554 142.543 10.8211C142.35 10.8867 142.175 10.9974 142.033 11.1439C141.89 11.2905 141.785 11.4687 141.726 11.6639C141.666 11.8592 141.653 12.0658 141.689 12.2668V14.5334C141.689 16.4351 140.028 17.3838 136.705 17.3795H129.809C126.417 17.3795 124.72 16.4308 124.715 14.5334V12.2668C124.715 11.8723 124.559 11.4939 124.28 11.215C124.001 10.936 123.622 10.7793 123.228 10.7793C122.833 10.7793 122.455 10.936 122.176 11.215C121.897 11.4939 121.74 11.8723 121.74 12.2668V14.6171C121.74 18.0514 124.64 19.7685 130.44 19.7685H135.945C141.745 19.7685 144.647 18.0514 144.651 14.6171V12.3054C144.696 12.0992 144.689 11.8853 144.631 11.6824C144.573 11.4795 144.466 11.294 144.32 11.142C144.174 10.99 143.993 10.8763 143.792 10.8108C143.592 10.7453 143.378 10.7301 143.17 10.7664H143.144ZM135.945 0H130.44C124.636 0 121.736 1.73431 121.74 5.20292V7.37294C121.74 8.39034 122.23 8.89905 123.215 8.89905C123.421 8.92767 123.631 8.90768 123.828 8.8407C124.025 8.77371 124.203 8.66157 124.349 8.51326C124.495 8.36495 124.604 8.18459 124.667 7.98658C124.731 7.78858 124.747 7.57842 124.715 7.37294V5.31238C124.715 3.34626 126.413 2.36535 129.809 2.36964H136.924C140.118 2.36964 141.715 3.35056 141.715 5.31238V7.44377C141.687 7.64139 141.705 7.8428 141.769 8.03209C141.832 8.22137 141.938 8.39337 142.08 8.53449C142.221 8.67562 142.393 8.78201 142.582 8.84528C142.771 8.90854 142.973 8.92696 143.17 8.89905C143.375 8.92436 143.582 8.90189 143.777 8.83344C143.971 8.76498 144.147 8.65238 144.29 8.5045C144.434 8.35661 144.541 8.17747 144.604 7.98113C144.666 7.78479 144.683 7.57661 144.651 7.37294V5.1514C144.651 1.71713 141.749 0 135.945 0ZM68.8163 9.01495H60.9475C58.8826 9.01495 57.8502 8.54059 57.8502 7.59187V4.91315C57.8502 3.72833 58.5972 3.13591 60.0911 3.13591H73.826C74.3283 3.13591 74.5794 2.73668 74.5794 1.93821C74.5794 1.21702 74.3283 0.849986 73.826 0.849986H59.8979H59.8013C56.616 1.01741 55.0234 2.30526 55.0234 4.71354V7.84945C55.0234 10.1075 57.1569 11.2386 61.424 11.2429H69.1511C71.5787 11.2429 72.7893 11.8869 72.7893 13.1296V15.3254C72.7893 16.8322 71.8255 17.5856 69.898 17.5856H56.9487C56.8007 17.5679 56.6506 17.5848 56.5101 17.6348C56.3697 17.6848 56.2427 17.7666 56.1392 17.8739C56.0357 17.9812 55.9584 18.111 55.9134 18.2531C55.8684 18.3952 55.8569 18.5458 55.8798 18.6931C55.8798 19.4787 56.2404 19.8651 56.9487 19.8651H69.5503C73.6242 19.8651 75.6612 18.6094 75.6612 16.0981V12.8785C75.6612 10.3028 73.3795 9.00208 68.8163 8.97632V9.01495Z" fill="white"/>
</svg>
