<svg width="225" height="32" viewBox="0 0 225 32" fill="none" xmlns="http://www.w3.org/2000/svg">
<path d="M30.9983 8.66003C30.9983 6.14003 28.6283 4.89002 23.8883 4.89002H1.83827C0.628269 4.89002 0.0182693 4.32002 0.0182693 3.20002C-0.0193918 2.9506 0.00135054 2.69585 0.0788619 2.4558C0.156373 2.21576 0.288537 1.99697 0.464955 1.81667C0.641373 1.63638 0.857228 1.4995 1.09553 1.41679C1.33384 1.33407 1.58809 1.30779 1.83827 1.34002H23.9783C31.5716 1.34002 35.3649 3.78003 35.3583 8.66003V23.08C35.3583 28.26 31.5349 30.85 23.8883 30.85H1.44827C0.49827 30.85 0.0182693 30.36 0.0182693 29.36V11.08C0.0182693 9.74002 0.758268 9.08002 2.22827 9.08002C3.69827 9.08002 4.47827 9.75002 4.47827 11.08V27.4H23.7883C28.6016 27.4 31.0049 25.99 30.9983 23.17V8.66003Z" fill="#6F2C90"/>
<path d="M40.6884 4.30011C40.4788 3.98214 40.3643 3.61091 40.3584 3.2301C40.3583 2.95017 40.4198 2.67365 40.5384 2.4201C40.6561 2.16585 40.8149 1.93272 41.0084 1.7301C41.2056 1.53976 41.4361 1.38724 41.6884 1.28011C41.9474 1.16843 42.2264 1.1106 42.5084 1.11011C42.8336 1.11674 43.1512 1.20995 43.4284 1.38011C43.7806 1.58401 44.0763 1.87277 44.2884 2.22011L60.4784 27.1601L76.4784 2.25011C76.6653 1.93278 76.9395 1.6759 77.2684 1.5101C77.5779 1.35271 77.9213 1.27373 78.2684 1.28011C78.8333 1.2777 79.3814 1.47219 79.8184 1.83011C80.0363 1.99257 80.2131 2.20384 80.3347 2.44696C80.4563 2.69008 80.5192 2.95829 80.5184 3.2301C80.4938 3.59045 80.3691 3.93678 80.1584 4.2301L63.2384 29.4301C62.9137 29.9512 62.4587 30.3786 61.9184 30.6701C61.4427 30.9231 60.9122 31.0555 60.3734 31.0555C59.8346 31.0555 59.3041 30.9231 58.8284 30.6701C58.3106 30.3888 57.8708 29.9833 57.5484 29.4901L40.6484 4.29012" fill="#6F2C90"/>
<path d="M124.148 4.89009C123.068 4.89009 122.528 4.27009 122.528 3.03009C122.528 1.91009 123.068 1.34009 124.148 1.34009H152.828C153.828 1.34009 154.388 1.91009 154.388 3.03009C154.388 4.15009 153.868 4.89009 152.828 4.89009H124.148ZM140.668 29.2301C140.668 30.4701 139.938 31.0901 138.488 31.0901C137.038 31.0901 136.278 30.4701 136.278 29.2301V8.59009C136.316 8.03354 136.564 7.51206 136.971 7.13115C137.379 6.75024 137.916 6.53833 138.473 6.53833C139.031 6.53833 139.568 6.75024 139.976 7.13115C140.383 7.51206 140.631 8.03354 140.668 8.59009V29.2301Z" fill="#6F2C90"/>
<path d="M165.298 28.3902C165.298 29.9502 164.298 30.7202 162.298 30.7202C160.298 30.7202 159.358 29.9502 159.358 28.3902C159.358 26.8302 160.358 26.1602 162.298 26.1602C164.238 26.1602 165.298 26.9002 165.298 28.3902Z" fill="#6F2C90"/>
<path d="M179.498 29.2801C179.498 30.5201 178.728 31.1401 177.168 31.1401C175.608 31.1401 174.878 30.5201 174.878 29.2801V1.98007C174.878 0.710072 175.668 0.0800781 177.268 0.0800781C178.868 0.0800781 179.498 0.710072 179.498 1.98007V29.2801Z" fill="#6F2C90"/>
<path d="M220.098 8.29001C220.098 5.23668 217.622 3.71333 212.668 3.72H201.618C196.352 3.72 193.715 5.24334 193.708 8.29001V11.49C193.729 11.8068 193.685 12.1245 193.578 12.4235C193.471 12.7224 193.304 12.9962 193.087 13.228C192.87 13.4597 192.607 13.6445 192.316 13.7708C192.025 13.8971 191.711 13.9622 191.393 13.9622C191.076 13.9622 190.762 13.8971 190.47 13.7708C190.179 13.6445 189.917 13.4597 189.7 13.228C189.483 12.9962 189.316 12.7224 189.209 12.4235C189.102 12.1245 189.057 11.8068 189.078 11.49V8.08C189.078 2.69334 193.585 0 202.598 0H211.148C220.155 0 224.658 2.69334 224.658 8.08V11.45C224.658 13.03 223.898 13.82 222.368 13.82C222.061 13.8651 221.747 13.8378 221.451 13.7403C221.156 13.6428 220.888 13.4778 220.667 13.2585C220.447 13.0391 220.281 12.7713 220.182 12.4765C220.083 12.1817 220.055 11.8679 220.098 11.56V8.29001ZM224.658 22.72C224.658 28.0533 220.155 30.72 211.148 30.72H202.598C193.592 30.72 189.085 28.0533 189.078 22.72V19.07C189.057 18.7532 189.102 18.4355 189.209 18.1365C189.316 17.8376 189.483 17.5638 189.7 17.332C189.917 17.1003 190.179 16.9155 190.47 16.7892C190.762 16.6629 191.076 16.5978 191.393 16.5978C191.711 16.5978 192.025 16.6629 192.316 16.7892C192.607 16.9155 192.87 17.1003 193.087 17.332C193.304 17.5638 193.471 17.8376 193.578 18.1365C193.685 18.4355 193.729 18.7532 193.708 19.07V22.59C193.708 25.5433 196.345 27.0167 201.618 27.01H212.358C217.518 27.01 220.098 25.5367 220.098 22.59V19.07C220.098 18.4653 220.338 17.8854 220.766 17.4578C221.194 17.0302 221.774 16.79 222.378 16.79C222.983 16.79 223.563 17.0302 223.99 17.4578C224.418 17.8854 224.658 18.4653 224.658 19.07V22.72Z" fill="#6F2C90"/>
<path d="M117.528 25.0801C117.528 28.9801 114.365 30.9301 108.038 30.9301H88.4683C87.3583 30.9301 86.8083 30.3301 86.8083 29.1101C86.8083 27.8901 87.3583 27.3901 88.4683 27.3901H108.588C111.582 27.3901 113.075 26.2201 113.068 23.8801V20.4701C113.068 18.4701 111.188 17.5401 107.428 17.5401H95.4283C88.8083 17.5401 85.4983 15.7835 85.4983 12.2701V7.40015C85.4983 3.40015 88.3383 1.40015 94.0483 1.40015H94.7883C95.8983 1.40015 96.4483 2.01014 96.4483 3.22014C96.4483 4.43014 95.8983 4.95013 94.7883 4.95013H93.3383C91.0183 4.95013 89.8583 5.87014 89.8583 7.71014V11.8701C89.8583 13.3401 91.4683 14.0801 94.6683 14.0801H106.898C113.992 14.0801 117.535 16.0801 117.528 20.0801V25.0801Z" fill="#6F2C90"/>
<path d="M93.0484 4.89009C92.2284 4.89009 91.8184 4.27009 91.8184 3.03009C91.8184 1.91009 92.2284 1.34009 93.0484 1.34009H114.668C115.458 1.34009 115.848 1.91009 115.848 3.03009C115.848 4.15009 115.458 4.89009 114.668 4.89009H93.0484Z" fill="#6F2C90"/>
</svg>
