<svg width="60" height="60" viewBox="0 0 60 60" fill="none" xmlns="http://www.w3.org/2000/svg">
<circle cx="30" cy="30" r="30" fill="#640BDB"/>
<path d="M22 26V38H42V26H22ZM32 36C29.791 36 28 34.208 28 32C28 29.792 29.791 28 32 28C34.209 28 36 29.792 36 32C36 34.208 34.209 36 32 36ZM32.2 33.979V34.4H31.8V34.001C31.387 33.994 30.957 33.896 30.6 33.71L30.783 33.053C31.166 33.201 31.675 33.359 32.072 33.269C32.532 33.165 32.627 32.692 32.119 32.464C31.746 32.292 30.607 32.142 30.607 31.167C30.607 30.621 31.022 30.133 31.8 30.026V29.6H32.2V30.007C32.489 30.015 32.814 30.065 33.178 30.175L33.032 30.834C32.725 30.727 32.386 30.628 32.055 30.649C31.459 30.684 31.406 31.2 31.823 31.416C32.507 31.737 33.4 31.977 33.4 32.834C33.4 33.521 32.863 33.887 32.2 33.979V33.979ZM40 25H21V36H20V24H40V25ZM38 23H19V34H18V22H38V23Z" fill="#F2F2F2"/>
</svg>
