<svg width="68" height="68" viewBox="0 0 68 68" fill="none" xmlns="http://www.w3.org/2000/svg">
<g filter="url(#filter0_d_35_6)">
<circle cx="34" cy="30" r="30" fill="#D9D3FF"/>
<path d="M33.8665 38.2386C32.5938 38.2386 31.4602 38.0199 30.4659 37.5824C29.4773 37.1392 28.696 36.5312 28.1222 35.7585C27.554 34.9801 27.2614 34.0824 27.2443 33.0653H30.9602C30.983 33.4915 31.1222 33.8665 31.3778 34.1903C31.6392 34.5085 31.9858 34.7557 32.4176 34.9318C32.8494 35.108 33.3352 35.196 33.875 35.196C34.4375 35.196 34.9347 35.0966 35.3665 34.8977C35.7983 34.6989 36.1364 34.4233 36.3807 34.071C36.625 33.7187 36.7472 33.3125 36.7472 32.8523C36.7472 32.3864 36.6165 31.9744 36.3551 31.6165C36.0994 31.2528 35.7301 30.9687 35.2472 30.7642C34.7699 30.5597 34.2017 30.4574 33.5426 30.4574H31.9148V27.7472H33.5426C34.0994 27.7472 34.5909 27.6506 35.017 27.4574C35.4489 27.2642 35.7841 26.9972 36.0227 26.6562C36.2614 26.3097 36.3807 25.9062 36.3807 25.446C36.3807 25.0085 36.2756 24.625 36.0653 24.2955C35.8608 23.9602 35.571 23.6989 35.196 23.5114C34.8267 23.3239 34.3949 23.2301 33.9006 23.2301C33.4006 23.2301 32.9432 23.321 32.5284 23.5028C32.1136 23.679 31.7812 23.9318 31.5312 24.2614C31.2812 24.5909 31.1477 24.9773 31.1307 25.4205H27.5938C27.6108 24.4148 27.8977 23.5284 28.4545 22.7614C29.0114 21.9943 29.7614 21.3949 30.7045 20.9631C31.6534 20.5256 32.7244 20.3068 33.9176 20.3068C35.1222 20.3068 36.1761 20.5256 37.0795 20.9631C37.983 21.4006 38.6847 21.9915 39.1847 22.7358C39.6903 23.4744 39.9403 24.304 39.9347 25.2244C39.9403 26.2017 39.6364 27.017 39.0227 27.6705C38.4148 28.3239 37.6222 28.7386 36.6449 28.9148V29.0511C37.929 29.2159 38.9063 29.6619 39.5767 30.3892C40.2528 31.1108 40.5881 32.0142 40.5824 33.0994C40.5881 34.0938 40.3011 34.9773 39.7216 35.75C39.1477 36.5227 38.3551 37.1307 37.3438 37.5739C36.3324 38.017 35.1733 38.2386 33.8665 38.2386Z" fill="#352C70"/>
</g>
<defs>
<filter id="filter0_d_35_6" x="0" y="0" width="68" height="68" filterUnits="userSpaceOnUse" color-interpolation-filters="sRGB">
<feFlood flood-opacity="0" result="BackgroundImageFix"/>
<feColorMatrix in="SourceAlpha" type="matrix" values="0 0 0 0 0 0 0 0 0 0 0 0 0 0 0 0 0 0 127 0" result="hardAlpha"/>
<feOffset dy="4"/>
<feGaussianBlur stdDeviation="2"/>
<feComposite in2="hardAlpha" operator="out"/>
<feColorMatrix type="matrix" values="0 0 0 0 0 0 0 0 0 0 0 0 0 0 0 0 0 0 0.25 0"/>
<feBlend mode="normal" in2="BackgroundImageFix" result="effect1_dropShadow_35_6"/>
<feBlend mode="normal" in="SourceGraphic" in2="effect1_dropShadow_35_6" result="shape"/>
</filter>
</defs>
</svg>
