<svg width="60" height="60" viewBox="0 0 60 60" fill="none" xmlns="http://www.w3.org/2000/svg">
<circle cx="30" cy="30" r="30" fill="#640BDB"/>
<path d="M35.9375 39H23.9609V36.4805L28.2617 32.1328C29.1289 31.2422 29.8242 30.5 30.3477 29.9062C30.8789 29.3047 31.2617 28.7578 31.4961 28.2656C31.7383 27.7734 31.8594 27.2461 31.8594 26.6836C31.8594 26.0039 31.668 25.4961 31.2852 25.1602C30.9102 24.8164 30.4062 24.6445 29.7734 24.6445C29.1094 24.6445 28.4648 24.7969 27.8398 25.1016C27.2148 25.4062 26.5625 25.8398 25.8828 26.4023L23.9141 24.0703C24.4062 23.6484 24.9258 23.25 25.4727 22.875C26.0273 22.5 26.668 22.1992 27.3945 21.9727C28.1289 21.7383 29.0078 21.6211 30.0312 21.6211C31.1562 21.6211 32.1211 21.8242 32.9258 22.2305C33.7383 22.6367 34.3633 23.1914 34.8008 23.8945C35.2383 24.5898 35.457 25.3789 35.457 26.2617C35.457 27.207 35.2695 28.0703 34.8945 28.8516C34.5195 29.6328 33.9727 30.4062 33.2539 31.1719C32.543 31.9375 31.6836 32.7852 30.6758 33.7148L28.4727 35.7891V35.9531H35.9375V39Z" fill="#F2F2F2"/>
</svg>
