<svg width="60" height="60" viewBox="0 0 60 60" fill="none" xmlns="http://www.w3.org/2000/svg">
<circle cx="30" cy="30" r="29.5" stroke="#F2F2F2"/>
<path d="M35.4102 39H24.1836V37.3711L28.7656 32.7188C29.6172 31.8594 30.332 31.0938 30.9102 30.4219C31.4961 29.75 31.9414 29.0898 32.2461 28.4414C32.5508 27.7852 32.7031 27.0664 32.7031 26.2852C32.7031 25.3164 32.4141 24.5781 31.8359 24.0703C31.2656 23.5547 30.5117 23.2969 29.5742 23.2969C28.7539 23.2969 28.0273 23.4375 27.3945 23.7188C26.7617 24 26.1133 24.3984 25.4492 24.9141L24.4062 23.6016C24.8594 23.2188 25.3516 22.8789 25.8828 22.582C26.4219 22.2852 26.9961 22.0508 27.6055 21.8789C28.2227 21.707 28.8789 21.6211 29.5742 21.6211C30.6289 21.6211 31.5391 21.8047 32.3047 22.1719C33.0703 22.5391 33.6602 23.0625 34.0742 23.7422C34.4961 24.4219 34.707 25.2305 34.707 26.168C34.707 27.0742 34.5273 27.918 34.168 28.6992C33.8086 29.4727 33.3047 30.2422 32.6562 31.0078C32.0078 31.7656 31.25 32.5703 30.3828 33.4219L26.6562 37.1367V37.2188H35.4102V39Z" fill="#F2F2F2"/>
</svg>
