<svg width="68" height="68" viewBox="0 0 68 68" fill="none" xmlns="http://www.w3.org/2000/svg">
<g filter="url(#filter0_d_35_2)">
<circle cx="34" cy="30" r="30" fill="#D9D3FF"/>
<path d="M27.4148 38V35.3409L33.6278 29.5881C34.1563 29.0767 34.5994 28.6165 34.9574 28.2074C35.321 27.7983 35.5966 27.3977 35.7841 27.0057C35.9716 26.608 36.0653 26.179 36.0653 25.7188C36.0653 25.2074 35.9489 24.767 35.7159 24.3977C35.483 24.0227 35.1648 23.7358 34.7614 23.5369C34.358 23.3324 33.9006 23.2301 33.3892 23.2301C32.8551 23.2301 32.3892 23.3381 31.9915 23.554C31.5938 23.7699 31.2869 24.0795 31.071 24.483C30.8551 24.8864 30.7472 25.3665 30.7472 25.9233H27.2443C27.2443 24.7812 27.5028 23.7898 28.0199 22.9489C28.5369 22.108 29.2614 21.4574 30.1932 20.9972C31.125 20.5369 32.1989 20.3068 33.4148 20.3068C34.6648 20.3068 35.7528 20.5284 36.679 20.9716C37.6108 21.4091 38.3352 22.017 38.8523 22.7955C39.3693 23.5739 39.6278 24.4659 39.6278 25.4716C39.6278 26.1307 39.4972 26.7812 39.2358 27.4233C38.9801 28.0653 38.5227 28.7784 37.8636 29.5625C37.2045 30.3409 36.2756 31.2756 35.0767 32.3665L32.5284 34.8636V34.983H39.858V38H27.4148Z" fill="#352C70"/>
</g>
<defs>
<filter id="filter0_d_35_2" x="0" y="0" width="68" height="68" filterUnits="userSpaceOnUse" color-interpolation-filters="sRGB">
<feFlood flood-opacity="0" result="BackgroundImageFix"/>
<feColorMatrix in="SourceAlpha" type="matrix" values="0 0 0 0 0 0 0 0 0 0 0 0 0 0 0 0 0 0 127 0" result="hardAlpha"/>
<feOffset dy="4"/>
<feGaussianBlur stdDeviation="2"/>
<feComposite in2="hardAlpha" operator="out"/>
<feColorMatrix type="matrix" values="0 0 0 0 0 0 0 0 0 0 0 0 0 0 0 0 0 0 0.25 0"/>
<feBlend mode="normal" in2="BackgroundImageFix" result="effect1_dropShadow_35_2"/>
<feBlend mode="normal" in="SourceGraphic" in2="effect1_dropShadow_35_2" result="shape"/>
</filter>
</defs>
</svg>
