<svg width="60" height="60" viewBox="0 0 60 60" fill="none" xmlns="http://www.w3.org/2000/svg">
<circle cx="30" cy="30" r="30" fill="#640BDB"/>
<path d="M35.2695 25.6992C35.2695 26.4883 35.1055 27.1719 34.7773 27.75C34.4492 28.3281 34.0039 28.8008 33.4414 29.168C32.8867 29.5352 32.2617 29.8047 31.5664 29.9766V30.0469C32.9414 30.2188 33.9844 30.6406 34.6953 31.3125C35.4141 31.9844 35.7734 32.8828 35.7734 34.0078C35.7734 35.0078 35.5273 35.9023 35.0352 36.6914C34.5508 37.4805 33.8008 38.1016 32.7852 38.5547C31.7695 39.0078 30.4609 39.2344 28.8594 39.2344C27.9141 39.2344 27.0312 39.1562 26.2109 39C25.3984 38.8516 24.6328 38.6211 23.9141 38.3086V35.2266C24.6484 35.6016 25.418 35.8867 26.2227 36.082C27.0273 36.2695 27.7773 36.3633 28.4727 36.3633C29.7695 36.3633 30.6758 36.1406 31.1914 35.6953C31.7148 35.2422 31.9766 34.6094 31.9766 33.7969C31.9766 33.3203 31.8555 32.918 31.6133 32.5898C31.3711 32.2617 30.9492 32.0117 30.3477 31.8398C29.7539 31.668 28.9219 31.582 27.8516 31.582H26.5508V28.8047H27.875C28.9297 28.8047 29.7305 28.707 30.2773 28.5117C30.832 28.3086 31.207 28.0352 31.4023 27.6914C31.6055 27.3398 31.707 26.9414 31.707 26.4961C31.707 25.8867 31.5195 25.4102 31.1445 25.0664C30.7695 24.7227 30.1445 24.5508 29.2695 24.5508C28.7227 24.5508 28.2227 24.6211 27.7695 24.7617C27.3242 24.8945 26.9219 25.0586 26.5625 25.2539C26.2031 25.4414 25.8867 25.625 25.6133 25.8047L23.9375 23.3086C24.6094 22.8242 25.3945 22.4219 26.293 22.1016C27.1992 21.7812 28.2773 21.6211 29.5273 21.6211C31.293 21.6211 32.6914 21.9766 33.7227 22.6875C34.7539 23.3984 35.2695 24.4023 35.2695 25.6992Z" fill="#F2F2F2"/>
</svg>
