<svg width="60" height="60" viewBox="0 0 60 60" fill="none" xmlns="http://www.w3.org/2000/svg">
<circle cx="30" cy="30" r="29.5" stroke="white"/>
<path d="M34.7773 25.8633C34.7773 26.6289 34.6289 27.293 34.332 27.8555C34.0352 28.418 33.6211 28.8789 33.0898 29.2383C32.5586 29.5898 31.9336 29.8359 31.2148 29.9766V30.0703C32.5742 30.2422 33.5938 30.6797 34.2734 31.3828C34.9609 32.0859 35.3047 33.0078 35.3047 34.1484C35.3047 35.1406 35.0703 36.0195 34.6016 36.7852C34.1406 37.5508 33.4297 38.1523 32.4688 38.5898C31.5156 39.0195 30.293 39.2344 28.8008 39.2344C27.8945 39.2344 27.0547 39.1602 26.2812 39.0117C25.5156 38.8711 24.7812 38.6328 24.0781 38.2969V36.4688C24.7891 36.8203 25.5625 37.0977 26.3984 37.3008C27.2344 37.4961 28.043 37.5938 28.8242 37.5938C30.3867 37.5938 31.5156 37.2852 32.2109 36.668C32.9062 36.043 33.2539 35.1914 33.2539 34.1133C33.2539 33.3711 33.0586 32.7734 32.668 32.3203C32.2852 31.8594 31.7305 31.5234 31.0039 31.3125C30.2852 31.0938 29.418 30.9844 28.4023 30.9844H26.6914V29.3203H28.4141C29.3438 29.3203 30.1328 29.1836 30.7812 28.9102C31.4297 28.6367 31.9219 28.2539 32.2578 27.7617C32.6016 27.2617 32.7734 26.6719 32.7734 25.9922C32.7734 25.125 32.4844 24.457 31.9062 23.9883C31.3281 23.5117 30.543 23.2734 29.5508 23.2734C28.9414 23.2734 28.3867 23.3359 27.8867 23.4609C27.3867 23.5859 26.918 23.7578 26.4805 23.9766C26.043 24.1953 25.6055 24.4492 25.168 24.7383L24.1836 23.4023C24.8086 22.918 25.5703 22.5 26.4688 22.1484C27.3672 21.7969 28.3867 21.6211 29.5273 21.6211C31.2773 21.6211 32.5898 22.0195 33.4648 22.8164C34.3398 23.6133 34.7773 24.6289 34.7773 25.8633Z" fill="#F2F2F2"/>
</svg>
