<svg xmlns="http://www.w3.org/2000/svg" version="1.1" viewBox="0 0 3000 3000" width="3000" height="3000">
<defs/><!--ITEM: Illustration component 1--><g transform="translate(1100.0 1561.111111111111) rotate(0.0 802.7777777777778 649.9999999999999)  scale(2.77687937562684 2.7735522590583144)"><svg width="578.187" height="468.713" viewBox="0.0 0.0 578.187 468.713"><linearGradient id="a-i1" gradientUnits="userSpaceOnUse" x1="30.401" x2="30.401" y1="162.568" y2="451.117"><stop offset="0" stop-color="#6898ec" fill="#000000"/><stop offset="0" stop-color="#c8ff00" fill="#000000"/><stop offset="1" stop-color="#c8ff00" stop-opacity="0" fill="#000000"/></linearGradient><linearGradient id="b-i1" gradientUnits="userSpaceOnUse" x1="6.359" x2="49.43" y1="374.467" y2="374.467"><stop offset="0" stop-color="#2c25a3" fill="#000000"/><stop offset="1" stop-color="#030a24" fill="#000000"/></linearGradient><linearGradient id="c-i1" gradientUnits="userSpaceOnUse" x1="135.52" x2="76.23" y1="331.44" y2="331.44"><stop offset=".29" stop-color="#c8ff00" fill="#000000"/><stop offset="1" stop-color="#65c400" fill="#000000"/></linearGradient><linearGradient xmlns:xlink="http://www.w3.org/1999/xlink" id="d-i1" x1="135.52" x2="76.23" xlink:href="#c-i1" y1="417.495" y2="417.495"/><radialGradient id="e-i1" cx="513.99" cy="259.984" gradientUnits="userSpaceOnUse" r="130.944"><stop offset="0" stop-color="#ff4a8b" fill="#000000"/><stop offset=".996" stop-color="#2c25a3" fill="#000000"/></radialGradient><linearGradient id="f-i1" gradientUnits="userSpaceOnUse" x1="489.062" x2="578.187" y1="290.505" y2="290.505"><stop offset=".012" stop-color="#352acf" stop-opacity="0" fill="#000000"/><stop offset="1" stop-color="#352acf" fill="#000000"/></linearGradient><radialGradient xmlns:xlink="http://www.w3.org/1999/xlink" id="g-i1" cx="251.076" cy="309.75" r="52.002" xlink:href="#e-i1"/><circle cx="499.115" cy="61.588" fill="#030a24" r="4.073"/><ellipse cx="30.401" cy="374.467" fill="url(#a-i1)" rx="30.401" ry="93.246"/><ellipse cx="27.895" cy="374.467" fill="url(#b-i1)" rx="21.536" ry="67.623"/><path d="m398.363 332.439h-275.129v-2h275.129a53.916 53.916 0 0 0 53.855-53.855v-274.612h2v274.612a55.918 55.918 0 0 1 -55.855 55.855z" fill="#c8ff00"/><path d="m407.934 418.5h-284.7v-2h284.7a130.488 130.488 0 0 0 130.34-130.341v-284.187h2v284.182c0 72.973-59.367 132.346-132.34 132.346z" fill="#c8ff00"/><path d="m115.991 323.083h-60.219c1.128 5.227 2.088 10.817 2.858 16.717h57.361a8.358 8.358 0 0 0 8.357-8.357 8.357 8.357 0 0 0 -8.357-8.36z" fill="url(#c-i1)"/><path d="m115.991 366.11h-55.311q.12 4.131.123 8.357t-.123 8.357h55.311a8.357 8.357 0 1 0 0-16.714z" fill="#030a24"/><path d="m399.772 368.134h-282.04v-2h282.04a98.258 98.258 0 0 0 98.26-98.341l-.223-267.793h2l.223 267.791a100.26 100.26 0 0 1 -100.26 100.343z" fill="#030a24"/><path d="m115.991 409.138h-57.361c-.77 5.893-1.731 11.487-2.858 16.714h60.219a8.357 8.357 0 1 0 0-16.714z" fill="url(#d-i1)"/><circle cx="453.139" cy="156.026" fill="#c8ff00" r="21.715"/><path d="m473.806 149.356a21.77 21.77 0 0 0 -8.777-11.5 44.465 44.465 0 0 0 -8.291 3.418c-6.71 3.607-8.554 7.686-11.282 6.943-1.664-.455-3.363-6.039 4.472-13.67a21.716 21.716 0 0 0 -18.447 19.983c1.523 4.944 4.031 6.936 4.776 7.483 7.559 5.55 23.405 1.768 37.549-12.657z" fill="#65c400"/><circle cx="379.321" cy="417.495" fill="#030a24" r="8.003"/><circle cx="536.131" cy="295.307" fill="url(#e-i1)" r="28.056"/><path d="m577.342 267.682c-3.7-7.09-18.757-6.92-36.655-.526a27.847 27.847 0 0 1 2.929.685c15.319-5.229 27.674-5.588 30.577-.029 3.97 7.607-11.251 23.4-34 35.276s-44.409 15.337-48.38 7.73c-2.9-5.562 4.464-15.5 17.525-25.088a28.2 28.2 0 0 1 1.1-2.785c-15.483 11.032-24.233 23.291-20.531 30.383 4.747 9.093 28.168 6.246 52.313-6.358s39.869-30.195 35.122-39.288z" fill="url(#f-i1)"/><circle cx="236.044" cy="331.44" fill="url(#g-i1)" r="18.725"/><g fill="#030a24"><path d="m61.448 453.3-1.785-.9c8.655-17.146 13.823-46.28 13.823-77.937 0-20.385-2.112-39.727-6.105-55.935l1.942-.479c4.032 16.363 6.163 35.87 6.163 56.414 0 31.959-5.248 61.43-14.038 78.837z"/><path d="m30.4 468.714v-2c7.541 0 15.03-9.7 20.546-26.622 5.711-17.514 8.855-40.82 8.855-65.625s-3.144-48.11-8.855-65.625c-5.516-16.918-13.005-26.621-20.546-26.621v-2c17.608 0 31.4 41.4 31.4 94.246s-13.79 94.247-31.4 94.247z"/></g></svg></g><!--ITEM: Illustration component 2--><g transform="translate(422.22222222222223 438.88888888888886) rotate(0.0 550.0 1129.1666666666667)  scale(2.7700831024930745 2.7774019915304615)"><svg width="397.1" height="813.11" viewBox="0.0 0.0 397.1 813.11"><linearGradient id="a-i2" gradientUnits="userSpaceOnUse" x1="87.219" x2="333.886" y1="901.28" y2="-548.054"><stop offset=".123" stop-color="#98b5f1" stop-opacity=".6" fill="#000000"/><stop offset=".285" stop-color="#d4f288" fill="#000000"/><stop offset=".34" stop-color="#d3f18c" fill="#000000"/><stop offset=".395" stop-color="#d0ec98" fill="#000000"/><stop offset=".45" stop-color="#cae5ad" fill="#000000"/><stop offset=".506" stop-color="#c3dbc9" fill="#000000"/><stop offset=".561" stop-color="#b9ceed" fill="#000000"/><stop offset=".573" stop-color="#b7cbf6" fill="#000000"/></linearGradient><path d="m294.924 0c-325.072 58.407-320.655 375.141-268.392 428.277 19.966 20.3 59.9-21.167 76.787 29.315 18.08 54.033-51.633 75.715-31.169 117.44 13.539 27.6 86.553 3.979 100.073 35.062 8.553 19.664-20.071 38.314-12.357 59.576 6.647 18.322 65.177 7.854 75.1 25.026 10.528 18.222-36.415 65-4.514 97.666 23.257 23.814 56.885 20.869 61.425 20.37a187.917 187.917 0 0 0 3.048-34.671 189.194 189.194 0 0 0 -2.892-33.86c-25.685 8.287-34.816 3.7-39.991-.009-19.257-13.794-.417-39.759-6.545-54.605-6.944-16.825-25.669-18.149-28.8-33.13-5.755-27.527 98.7-79.875 101.984-128 2.648-38.835-54.226-13.412-63.548-55.6-11.011-49.835 27.361-93.115 102.949-191.949 33.461-43.751 37.29-74.306 38.813-101.931 4.426-80.352-62.146-145.954-101.971-178.977z" fill="url(#a-i2)"/></svg></g><!--ITEM: Illustration component 3--><g transform="translate(1219.4444444444443 244.44444444444443) rotate(0.0 445.83333333333326 1041.6666666666667)  scale(2.7705880586101066 2.775154331882705)"><svg width="321.833" height="750.709" viewBox="0.0 0.0 321.833 750.709"><linearGradient id="a-i3" gradientUnits="userSpaceOnUse" x1="161.436" x2="161.436" y1="1001.762" y2="-539.383"><stop offset=".27" stop-color="#352acf" fill="#000000"/><stop offset=".685" stop-color="#030a24" fill="#000000"/></linearGradient><linearGradient id="b-i3" gradientUnits="userSpaceOnUse" x1="161.436" x2="161.436" y1="605.823" y2="231.295"><stop offset=".012" stop-color="#352acf" stop-opacity="0" fill="#000000"/><stop offset="1" stop-color="#352acf" fill="#000000"/></linearGradient><radialGradient id="c-i3" cx="257.333" cy="1010.709" gradientUnits="userSpaceOnUse" r="1010.71"><stop offset=".185" stop-color="#ff4a8b" fill="#000000"/><stop offset=".231" stop-color="#fe4d8d" stop-opacity=".985" fill="#000000"/><stop offset=".277" stop-color="#fb5694" stop-opacity=".941" fill="#000000"/><stop offset=".324" stop-color="#f5669f" stop-opacity=".868" fill="#000000"/><stop offset=".371" stop-color="#ee7baf" stop-opacity=".766" fill="#000000"/><stop offset=".418" stop-color="#e497c3" stop-opacity=".633" fill="#000000"/><stop offset=".465" stop-color="#d8b8db" stop-opacity=".474" fill="#000000"/><stop offset=".508" stop-color="#cbddf6" stop-opacity=".3" fill="#000000"/></radialGradient><linearGradient id="d-i3" gradientUnits="userSpaceOnUse" x1="158.5" x2="137.378" y1="323.025" y2="436.65"><stop offset="0" stop-color="#b1cdf7" fill="#000000"/><stop offset="1" stop-color="#6da2ef" fill="#000000"/></linearGradient><linearGradient id="e-i3" gradientUnits="userSpaceOnUse" x1="139.381" x2="111.509" y1="684.603" y2="417.622"><stop offset=".01" stop-color="#6da2ef" fill="#000000"/><stop offset="1" stop-color="#b4cff7" fill="#000000"/></linearGradient><linearGradient id="f-i3" gradientUnits="userSpaceOnUse" x1="214.359" x2="203.573" y1="692.251" y2="371.358"><stop offset=".01" stop-color="#6da2ef" fill="#000000"/><stop offset=".895" stop-color="#d2e1f7" fill="#000000"/></linearGradient><linearGradient xmlns:xlink="http://www.w3.org/1999/xlink" id="g-i3" x1="156.005" x2="135.126" xlink:href="#d-i3" y1="445.988" y2="473.009"/><linearGradient id="h-i3" gradientUnits="userSpaceOnUse" x1="153.519" x2="115.444" y1="447.952" y2="494.624"><stop offset="0" stop-color="#b4cff7" fill="#000000"/><stop offset="1" stop-color="#6fa3ef" fill="#000000"/></linearGradient><linearGradient xmlns:xlink="http://www.w3.org/1999/xlink" id="i-i3" x1="112.269" x2="39.623" xlink:href="#e-i3" y1="570.722" y2="466.085"/><linearGradient id="j-i3" gradientUnits="userSpaceOnUse" x1="120.535" x2="216.039" y1="230.354" y2="230.354"><stop offset=".383" stop-color="#c8ff00" fill="#000000"/><stop offset="1" stop-color="#65c400" fill="#000000"/></linearGradient><linearGradient id="k-i3" gradientUnits="userSpaceOnUse" x1="89.196" x2="54.529" y1="119.353" y2="-20.647"><stop offset="0" stop-color="#ff4a8b" fill="#000000"/><stop offset=".593" stop-color="#2c25a3" fill="#000000"/></linearGradient><path d="m165.374 45.365-1.414-1.414 39.451-39.451h52.303v2h-51.475z" fill="#030a24"/><path d="m171.326 64.854-1.414-1.414 39.45-39.451h65.362v2h-64.534z" fill="#030a24"/><path d="m1.122 39.8h320.628v710.5h-320.628z" fill="url(#a-i3)"/><path d="m72.426 341.505c11.514 13.789-36.465 54.67-71.3 102.541v131.623c.928.178 1.8.318 2.562.419l110.277 53.647 154.7-75.332c27.5-22.277 43.552-44.733 53.091-63.4v-158.594c0-74.683-103.041-68.009-89.978-154.448 1.227-8.114-20.909-3.351-27.7-4.992-7.144-1.727-10.4-4.593-7.408-15.395 7.206-26 65.829-65.94 52.9-104.087-2.166-6.388-7.66-10.1-13.778-13.687h-104.581c27.157 10.657 54.194 25.669 59.714 42.266 14.806 44.515-189.8 105.8-189.8 230.594-.003 44.757 56.058 10.588 71.301 28.845z" fill="url(#b-i3)"/><path d="m1.149 701.285s10.345-48.275 56.321-27.585 58.62 43.677 58.62 43.677 33.333-28.735 63.217-3.448c58.62-65.516 102.3-83.906 102.3-83.906s12.644-77.011 40.229-75.861v196.547h-321.836z" fill="url(#c-i3)"/><path d="m98.113 405.532c8.778-15.7 17.569-32.571 26.149-50.621 10.064-21.172 18.715-41.6 26.17-61.017a13.751 13.751 0 0 1 14.608-8.779c8.2 1.108 13.709 3.95 17.516 6.907 26.458 20.552 20.062 85.039-18.248 160.442z" fill="url(#d-i3)"/><path d="m195.307 714.26h-135.296c-9.684-36.724-50.048-165.677-39.487-215.024 42.827-2.774 88.648-17.087 131.476-19.86l75.333 48z" fill="url(#e-i3)"/><path d="m268 506.709c-2.993-11.064-12.767-42.243-12.88-42.557-1.4-4.38-14.884-44.844-29.342-64.11-5.8-7.725-14.554-7.889-18.445-7.333-38.666 4.667-19.556 119.7-18 130.667 4.742 21.5-56 29.333-38 198l5.169-7.116h100.134c2.403-9.834 33.364-126.218 11.364-207.551z" fill="url(#f-i3)"/><path d="m65.71 449.084c1.985-26.238 15.542-42.473 35.228-48 27.3-7.668 62.179 32.5 99.641 70.239 10.755 10.833 13.225 27.666 5.46 40.808-3.272 5.539-7.323 8.9-9.639 9.984-20.251 9.5-53.774-3.413-84.74-57.42" fill="url(#g-i3)"/><path d="m120.543 402.635c-6.883-2.571-13.438-3.286-19.605-1.554a45.782 45.782 0 0 0 -20.121 11.53c4.7 3.917 11.832 5.962 19.491 5 10.219-1.283 18.221-7.511 20.235-14.976z" fill="#c8ff00"/><path d="m41.227 480.026c1.985-26.238 13.073-40.226 32.755-45.759 27.506-7.726 62.706 30.229 100.491 67.832 9.86 9.813 12.326 25.1 5.447 37.188-3.165 5.563-7.178 8.559-8.666 9.3-20.042 9.931-55.584 0-86.55-54.007" fill="url(#h-i3)"/><path d="m73.982 434.267a51.16 51.16 0 0 0 -8.756 3.308 18.916 18.916 0 0 0 -.375 2.466c-.978 11.848 9.3 22.366 22.95 23.494 12.755 1.053 23.942-6.46 26.16-17.111-14.509-10.2-27.976-15.524-39.979-12.157z" fill="#c8ff00"/><path d="m19.874 507.557c0-20.667 11.427-37.888 31.026-43.719 25.005-7.44 56.121 23.574 87.275 76.426 4.242 7.2 7.158 28.445-6.842 35.778-19.814 10.379-53.934-6.007-82.666-52.666" fill="url(#i-i3)"/><path d="m92.4 479.6c-14.863-13.54-28.951-19.5-41.5-15.762a36.371 36.371 0 0 0 -5.643 2.211 21.607 21.607 0 0 0 -2.274 8.015c-1.051 12.72 9.2 23.948 22.89 25.079 13.171 1.088 24.727-7.565 26.527-19.543z" fill="#c8ff00"/><circle cx="168.287" cy="230.354" fill="url(#j-i3)" r="47.744"/><path d="m228.525 176.57c4.728 8.453-22.242 32.533-60.238 53.784s-72.631 31.626-77.359 23.173c-3.4-6.078 9.589-20.234 31.28-35.609.45-1.669-.169-.6.459-2.209-25.78 18.305-39.935 33.9-35.073 42.59 6.318 11.3 44.289 2.08 84.81-20.584s68.25-50.193 61.932-61.488z" fill="#ff4a8b"/><path d="m193.67 189.911a47.748 47.748 0 0 0 -72.262 49.489 23.213 23.213 0 0 0 4.988-2.112c8.453-4.849 20.256-37.333 34.569-39.224 6.589-.87 8.657.244 15.972.408 4.07.087 9.74-1.44 16.733-8.561z" fill="#65c400"/><path d="m215.74 235.521a83.891 83.891 0 0 1 -9.761 6.741c-8.228 4.451-14.97-1.46-22.691 2.6-16.005 8.417-28.837 10.873-26.237 21.509.951 3.887-2.142 6.5-4.977 8.875a47.713 47.713 0 0 0 63.666-39.725z" fill="#65c400"/><path d="m235.977 39.783c15.853 8.374 19.136 22.174 12.912 39.482-8.312 22.812-24.177 41.4-40.537 59.005-10.85 12.585-25.019 38.606 6.921 32.686 4.508-.836 11.839-1.727 16.075 1.049 1.456.954 5.265 4.446 3.415 11.1l-5.792-3.252c1.521-6.484-10.542-4.834-13.189-4.567-4.135.461-8.61.714-12.771-.593-13.006-4.12-9.564-19.426-4.3-28.467a63.381 63.381 0 0 1 11.278-14.553c4.161-4.272 9.683-9.891 13.451-14.516 11.524-14.321 33.1-41.751 26.778-60.555a28.212 28.212 0 0 0 -15-16.806s.421.01.759-.013z" fill="#ff4a8b"/><path d="m211.563 289.78c26.437 6.04 38.083 20.6 38.659 30.262 3.555 59.618-170.848 61.929-249.087 132.834-.027-.75 0-2.729-.02-6.094 75.264-71.77 231.492-84.852 236.394-127.462 2.111-18.351-14.63-24.008-25.946-29.54z" fill="#ff4a8b"/><path d="m41.591 51.307a30.759 30.759 0 1 0 59.284-11.507h-57.051a30.655 30.655 0 0 0 -2.233 11.507z" fill="url(#k-i3)"/><path d="m244.689 0h27.551a0 0 0 0 1 0 0v11a0 0 0 0 1 0 0h-27.551a5.5 5.5 0 0 1 -5.5-5.5 5.5 5.5 0 0 1 5.5-5.5z" fill="#030a24"/><path d="m244.689 19.489h27.551a0 0 0 0 1 0 0v11a0 0 0 0 1 0 0h-27.551a5.5 5.5 0 0 1 -5.5-5.5 5.5 5.5 0 0 1 5.5-5.5z" fill="#030a24"/><path d="m69.37 499.716a30.789 30.789 0 0 1 -6.7-.746 28.509 28.509 0 0 1 -16.51-10.194 20.208 20.208 0 0 1 -4.118-16.861 18.822 18.822 0 0 1 2.967-6.719 1 1 0 0 1 1.639 1.146 16.844 16.844 0 0 0 -2.648 6.008 18.245 18.245 0 0 0 3.753 15.207 26.5 26.5 0 0 0 15.359 9.461 26.5 26.5 0 0 0 17.922-2.046 18.249 18.249 0 0 0 9.848-12.172 16.669 16.669 0 0 0 .4-3.222 1 1 0 0 1 1-.975h.018a1 1 0 0 1 .975 1.026 18.744 18.744 0 0 1 -.444 3.606 20.215 20.215 0 0 1 -10.886 13.518 27.35 27.35 0 0 1 -12.575 2.963z" fill="#ff4a8b"/><path d="m97.37 419.271a30.781 30.781 0 0 1 -6.7-.745 29.933 29.933 0 0 1 -10.189-4.321 1 1 0 0 1 1.111-1.662 28 28 0 0 0 9.513 4.032 26.52 26.52 0 0 0 17.922-2.047 18.25 18.25 0 0 0 9.853-12.177 1 1 0 1 1 1.952.436 20.213 20.213 0 0 1 -10.884 13.513 27.35 27.35 0 0 1 -12.578 2.971z" fill="#ff4a8b"/><g fill="#fff"><path d="m177.779 509.043a1 1 0 0 1 -.788-.384c-23.082-29.482-43.857-47.4-57.219-57.247-14.475-10.663-23.611-14.406-23.7-14.442a1 1 0 0 1 .747-1.855c.377.151 9.4 3.838 24.054 14.622 13.482 9.921 34.436 27.983 57.694 57.689a1 1 0 0 1 -.786 1.617z"/><path d="m139.335 541.264a1 1 0 0 1 -.877-.517c-34.482-62.634-70.653-76.077-71.014-76.206a1 1 0 0 1 .667-1.885c.368.13 37.207 13.748 72.1 77.126a1 1 0 0 1 -.875 1.482z"/><path d="m205.334 478.376a1 1 0 0 1 -.756-.346c-25.568-29.514-45.759-47.759-58.2-57.867-13.473-10.951-21-14.975-21.071-15.015a1 1 0 1 1 .934-1.768c.308.163 7.716 4.118 21.316 15.164 12.513 10.163 32.824 28.5 58.528 58.177a1 1 0 0 1 -.755 1.655z"/><path d="m109.335 577.043a1.008 1.008 0 0 1 -.154-.012c-12.814-1.972-26.485-10.968-40.634-26.737a173.824 173.824 0 0 1 -17.4-23.068 1 1 0 0 1 1.711-1.035c.268.443 27.111 44.321 56.631 48.863a1 1 0 0 1 -.151 1.989z"/><path d="m150 635.043a1 1 0 0 1 -1-1c0-.645.43-64.836 37.653-99.4a1 1 0 1 1 1.361 1.465c-36.577 33.965-37.014 97.299-37.014 97.935a1 1 0 0 1 -1 1z"/></g><path d="m91.889 464.818a35.176 35.176 0 0 1 -7.644-.855 31.561 31.561 0 0 1 -16.937-9.592c-4.145-4.746-5.789-10.225-4.63-15.427a1 1 0 0 1 1.952.436c-1.017 4.564.469 9.42 4.185 13.674a29.549 29.549 0 0 0 15.865 8.957 29.578 29.578 0 0 0 18.167-1.375c5.17-2.274 8.577-6.041 9.594-10.605a13.028 13.028 0 0 0 .293-3.526 1 1 0 0 1 .946-1.052.976.976 0 0 1 1.052.946 15.115 15.115 0 0 1 -.338 4.067c-1.159 5.2-4.973 9.464-10.741 12a29.271 29.271 0 0 1 -11.764 2.352z" fill="#ff4a8b"/><rect fill="#db2c73" height="20" rx="10" width="218" x="50.222" y="712.542"/><rect fill="#db2c73" height="20" rx="10" width="218" x="50.222" y="730.32"/></svg></g><!--ITEM: Illustration component 4--><g transform="translate(1961.111111111111 202.77777777777777) rotate(0.0 376.3888888888888 688.8888888888888)  scale(2.773407869437372 2.775628903787748)"><svg width="271.427" height="496.384" viewBox="0.0 0.0 271.427 496.384"><linearGradient id="a-i4" gradientUnits="userSpaceOnUse" x1="136.213" x2="136.213" y1="455.213" y2="68.43"><stop offset="0" stop-color="#2c25a3" fill="#000000"/><stop offset=".612" stop-color="#030a24" fill="#000000"/></linearGradient><linearGradient id="b-i4" gradientUnits="userSpaceOnUse" x1="182.916" x2="156.25" y1="399.582" y2="-25.751"><stop offset="0" stop-color="#352acf" fill="#000000"/><stop offset="1" stop-color="#352acf" stop-opacity="0" fill="#000000"/></linearGradient><linearGradient id="c-i4" gradientUnits="userSpaceOnUse" x1="81.657" x2="187.102" y1="99.766" y2="99.766"><stop offset=".29" stop-color="#c8ff00" fill="#000000"/><stop offset="1" stop-color="#65c400" fill="#000000"/></linearGradient><radialGradient id="d-i4" cx="-1313.06" cy="-3619.692" gradientTransform="matrix(-1.023 .029 -.01 -.644 -1254.14 -2203.089)" gradientUnits="userSpaceOnUse" r="61.131"><stop offset=".692" stop-color="#79d002" fill="#000000"/><stop offset="1" stop-color="#c8ff00" fill="#000000"/></radialGradient><linearGradient id="e-i4" gradientUnits="userSpaceOnUse" x1="-2.858" x2="119.162" y1="510.068" y2="384.417"><stop offset="0" stop-color="#ff4a8b" fill="#000000"/><stop offset=".996" stop-color="#2c25a3" fill="#000000"/></linearGradient><linearGradient id="f-i4" gradientUnits="userSpaceOnUse" x1="54.392" x2="207.929" y1="279.643" y2="518.808"><stop offset=".492" stop-color="#ff4a8b" fill="#000000"/><stop offset=".996" stop-color="#2c25a3" fill="#000000"/></linearGradient><linearGradient xmlns:xlink="http://www.w3.org/1999/xlink" id="g-i4" gradientTransform="matrix(.754 .657 -.657 .754 -1301.343 -3503.632)" x1="3571.763" x2="3571.763" xlink:href="#c-i4" y1="1883.069" y2="2011.268"/><radialGradient xmlns:xlink="http://www.w3.org/1999/xlink" id="h-i4" cx="3573.352" cy="1926.85" gradientTransform="matrix(-.021 -1 .475 -.01 -711.818 3890.684)" r="113.06" xlink:href="#d-i4"/><path d="m5 5h262.427v486.384h-262.427z" fill="url(#a-i4)"/><path d="m139.507 305.394 100.227-100.226a32.705 32.705 0 0 0 0-46.252l-99.746-99.746-45.446 45.447 72.751 72.75a6.61 6.61 0 0 1 0 9.349l-73.232 73.232z" fill="url(#b-i4)"/><g fill="#fff"><path d="m94.768 260.655-1.414-1.415 73.232-73.231a5.612 5.612 0 0 0 0-7.935l-72.751-72.751 1.414-1.414 72.751 72.751a7.611 7.611 0 0 1 0 10.763z"/><path d="m106.13 272.017-1.414-1.414 80.205-80.203a11.833 11.833 0 0 0 0-16.712l-79.721-79.726 1.414-1.414 79.724 79.724a13.835 13.835 0 0 1 0 19.54z"/><path d="m117.492 283.378-1.414-1.414 86.747-86.747a18.656 18.656 0 0 0 0-26.351l-86.267-86.266 1.414-1.414 86.267 86.265a20.657 20.657 0 0 1 0 29.179z"/><path d="m107.64 243.687h139.25v2h-139.25z" transform="matrix(.70515416 -.70905402 .70905402 .70515416 -121.231 197.837)"/><path d="m227.07 196.065-1.627-1.164a22.032 22.032 0 0 0 -2.363-28.5l-95.16-95.162 1.414-1.415 95.16 95.162a24.025 24.025 0 0 1 2.576 31.079z"/><path d="m118.049 252.708h145.948v2h-145.948z" transform="matrix(.70613114 -.70808107 .70808107 .70613114 -123.51 209.817)"/><path d="m243.237 202.71-1.578-1.228a31.734 31.734 0 0 0 -2.632-41.859l-99.746-99.746 1.414-1.414 99.746 99.746a33.736 33.736 0 0 1 2.796 44.501z"/></g><path d="m179.667 56.381-9.337-9.338-2.789 2.79c-16.435-3.864-39.892 5.134-58.926 24.167s-28.033 42.491-24.169 58.925l-2.789 2.79 9.337 9.337c14.755 14.755 46.566 6.866 71.052-17.621s32.376-56.296 17.621-71.05z" fill="url(#c-i4)"/><ellipse cx="125.993" cy="91.38" fill="url(#d-i4)" rx="62.702" ry="37.782" transform="matrix(.70710678 -.70710678 .70710678 .70710678 -27.713 115.855)"/><path d="m147.176 59.705a11.839 11.839 0 0 0 -1.665-1.381c-.031-.031-.059-.064-.09-.1a37.179 37.179 0 0 0 -52.579 52.58c.031.031.065.058.1.089a11.783 11.783 0 0 0 1.381 1.665c8.1 8.1 26.5 2.831 41.092-11.765s19.859-32.993 11.761-41.088z" fill="#fff"/><path d="m150.413 65.524a21.487 21.487 0 0 0 -8.153 4.627c-3.04 2.672-1.052 13.006-6.261 16.479-9.445 6.3-11.406 14.923-11.169 22.752a64.351 64.351 0 0 0 10.581-8.585c11.747-11.747 17.445-25.952 15.002-35.273z" fill="#c8ff00"/><path d="m117.6 59.422c-1.234-5.654-4.99-8.687-9.807-10.308a37.172 37.172 0 0 0 -25.841 35.393c14.193-5.493 37.567-16.287 35.648-25.085z" fill="#c8ff00"/><circle cx="226.803" cy="218.674" fill="#ff4a8b" r="13.987"/><path d="m2.982 491.384h68.706a55.875 55.875 0 0 0 -67.749-46.4c-1.846 16.372-.068 23.705-.957 46.4z" fill="url(#e-i4)"/><path d="m38.753 316.847 105.038 174.537h86.056l-105.039-174.537z" fill="url(#f-i4)"/><path d="m197.617 360.63c-5.35-24.207-25.878-55.122-56.671-81.942s-64.233-42.909-88.946-44.888l-12.616-10.986-17.706 20.33c-18.692 21.461 4.4 72.169 51.58 113.26s100.576 57 119.268 35.544l17.707-20.33z" fill="url(#g-i4)"/><ellipse cx="124.809" cy="297.216" fill="url(#h-i4)" rx="51.53" ry="113.283" transform="matrix(.6567832 -.75407946 .75407946 .6567832 -181.288 196.125)"/><path d="m104.265 320.8c27.529 23.977 58.535 33.819 70.974 22.975 1.019-1.031 2.022-2.088 2.988-3.2a68.763 68.763 0 0 0 -103.7-90.324c-.965 1.109-1.874 2.248-2.757 3.4-9.039 13.814 4.967 43.175 32.495 67.149z" fill="#fff"/><path d="m192.571 276.84c-12.019 6.3-39.475 23.32-35.541 34.347 1.7 4.755 6.99 3.234 9.582 8.935 3.325 7.313-3.342 13.458-.556 21.589a14.648 14.648 0 0 0 3.275 5.3 16.587 16.587 0 0 0 5.908-3.234c1.019-1.031 2.022-2.088 2.988-3.2a68.684 68.684 0 0 0 14.344-63.737z" fill="#c8ff00"/><path d="m163.451 237.507a68.774 68.774 0 0 0 -88.929 12.749c-.7.8-1.363 1.626-2.015 2.455a53.924 53.924 0 0 1 7.2.257c22.175 2.3 31.829 17.32 40.846 12.913 9.883-4.829 3.4-25.379 14.128-30.075 6.793-2.972 12.908 3.716 28.77 1.701z" fill="#c8ff00"/><path d="m266.427 5v486.384h-261.427v-486.384zm5-5h-271.427v496.384h271.427z" fill="#c8ff00"/></svg></g><!--ITEM: Illustration component 5--><g transform="translate(455.55555555555554 2200.0) rotate(0.0 334.72222222222223 231.94444444444434)  scale(2.7621675198440534 2.7586489425949923)"><svg width="242.362" height="168.158" viewBox="0.0 0.0 242.362 168.158"><circle cx="217.202" cy="67.045" fill="#c8ff00" r="13.209"/><path d="m242.162 56.521c-1.284-3.047-8.514-3.079-17.77-.539a13.474 13.474 0 0 1 1.174.846c7.977-2.262 13.968-2.564 14.888-.383 1.311 3.11-8.164 10.074-21.163 15.555s-24.6 7.4-25.911 4.293c-.92-2.182 3.482-6.262 10.674-10.4a12.951 12.951 0 0 1 .211-1.429c-8.282 4.854-13.308 10.054-12.024 13.1 1.736 4.117 14.319 2.743 28.1-3.069s23.559-13.857 21.821-17.974z" fill="#65c400"/><g fill="#6da2ef"><circle cx="218.466" cy="160.061" r="8.098"/><path d="m143.351 129.233-7.655-1.661-1.864-14.243h-.372l-1.863 14.243-7.656 1.661v.371l7.656 1.661 1.863 14.243h.372l1.864-14.243 7.655-1.661z"/><path d="m27.613 22.625-10.891-2.363-2.651-20.262h-.529l-2.651 20.262-10.891 2.363v.529l10.891 2.362 2.651 20.262h.529l2.651-20.262 10.891-2.362z"/></g></svg></g><!--ITEM: Illustration component 6--><g transform="translate(300.0 194.44444444444443) rotate(0.0 479.16666666666663 1086.111111111111)  scale(2.765609097747688 2.7759389844351468)"><svg width="346.518" height="782.518" viewBox="0.0 0.0 346.518 782.518"><linearGradient id="a-i6" gradientUnits="userSpaceOnUse" x1="21.162" x2="57.91" y1="495.895" y2="441.157"><stop offset="0" stop-color="#ff4a8b" fill="#000000"/><stop offset=".996" stop-color="#2c25a3" fill="#000000"/></linearGradient><linearGradient id="b-i6" gradientUnits="userSpaceOnUse" x1="188.504" x2="167.17" y1="527.272" y2="323.272"><stop offset="0" stop-color="#ff4a8b" fill="#000000"/><stop offset=".696" stop-color="#2c25a3" fill="#000000"/><stop offset=".932" stop-color="#c8ff00" fill="#000000"/></linearGradient><linearGradient id="c-i6" gradientUnits="userSpaceOnUse" x1="369.581" x2="94.804" y1="639.579" y2="476.465"><stop offset="0" stop-color="#6898ec" fill="#000000"/><stop offset="0" stop-color="#6da2ef" fill="#000000"/><stop offset="1" stop-color="#352acf" fill="#000000"/></linearGradient><linearGradient id="d-i6" gradientUnits="userSpaceOnUse" x1="47.121" x2="127.32" y1="33.386" y2="282.621"><stop offset="0" stop-color="#ff4a8b" fill="#000000"/><stop offset=".593" stop-color="#2c25a3" fill="#000000"/></linearGradient><linearGradient xmlns:xlink="http://www.w3.org/1999/xlink" id="e-i6" x1="97.728" x2="311.736" xlink:href="#c-i6" y1="84.826" y2="84.826"/><linearGradient xmlns:xlink="http://www.w3.org/1999/xlink" id="f-i6" x1="31.069" x2="154.021" xlink:href="#c-i6" y1="177.721" y2="326.681"/><linearGradient xmlns:xlink="http://www.w3.org/1999/xlink" id="g-i6" x1="9.993" x2="93.931" xlink:href="#a-i6" y1="215.424" y2="363.202"/><linearGradient id="h-i6" gradientUnits="userSpaceOnUse" x1="15.777" x2="149.777" y1="126.915" y2="282.915"><stop offset="0" stop-color="#6898ec" fill="#000000"/><stop offset=".296" stop-color="#6da2ef" fill="#000000"/><stop offset=".613" stop-color="#352acf" stop-opacity="0" fill="#000000"/></linearGradient><linearGradient id="i-i6" gradientUnits="userSpaceOnUse" x1="413.648" x2="147.648" y1="102.193" y2="466.193"><stop offset=".383" stop-color="#c8ff00" fill="#000000"/><stop offset="1" stop-color="#65c400" fill="#000000"/></linearGradient><linearGradient id="j-i6" gradientUnits="userSpaceOnUse" x1="-24.129" x2="287.234" y1="226.434" y2="276.689"><stop offset=".203" stop-color="#c8ff00" fill="#000000"/><stop offset=".845" stop-color="#65c400" fill="#000000"/></linearGradient><linearGradient id="k-i6" gradientUnits="userSpaceOnUse" x1="477.356" x2="157.792" y1="202.699" y2="202.699"><stop offset=".29" stop-color="#c8ff00" fill="#000000"/><stop offset="1" stop-color="#65c400" fill="#000000"/></linearGradient><linearGradient xmlns:xlink="http://www.w3.org/1999/xlink" id="l-i6" x1="-110.146" x2="89.56" xlink:href="#k-i6" y1="570.131" y2="602.365"/><linearGradient xmlns:xlink="http://www.w3.org/1999/xlink" id="m-i6" x1="211.503" x2="6.537" xlink:href="#k-i6" y1="554.908" y2="554.908"/><radialGradient xmlns:xlink="http://www.w3.org/1999/xlink" id="n-i6" cx="245.06" cy="593.084" r="137.409" xlink:href="#d-i6"/><linearGradient id="o-i6" gradientUnits="userSpaceOnUse" x1="123.22" x2="385.22" y1="557.373" y2="667.373"><stop offset=".185" stop-color="#ff4a8b" fill="#000000"/><stop offset=".229" stop-color="#ff4e8e" fill="#000000"/><stop offset=".273" stop-color="#ff5a95" fill="#000000"/><stop offset=".318" stop-color="#ff6fa2" fill="#000000"/><stop offset=".363" stop-color="#ff8bb5" fill="#000000"/><stop offset=".408" stop-color="#ffb0cc" fill="#000000"/><stop offset=".453" stop-color="#ffdce9" fill="#000000"/><stop offset=".484" stop-color="#fff" fill="#000000"/></linearGradient><linearGradient xmlns:xlink="http://www.w3.org/1999/xlink" id="p-i6" x1="128.096" x2="390.096" xlink:href="#o-i6" y1="545.759" y2="655.759"/><linearGradient id="q-i6" gradientUnits="userSpaceOnUse" x1="126.805" x2="223.141" y1="573.505" y2="617.841"><stop offset="0" stop-color="#6898ec" fill="#000000"/><stop offset="0" stop-color="#6da2ef" fill="#000000"/><stop offset=".697" stop-color="#201d7d" fill="#000000"/></linearGradient><linearGradient xmlns:xlink="http://www.w3.org/1999/xlink" id="r-i6" x1="322.754" x2="86.393" xlink:href="#k-i6" y1="680.442" y2="680.442"/><linearGradient xmlns:xlink="http://www.w3.org/1999/xlink" id="s-i6" x1="14.42" x2="148.53" xlink:href="#k-i6" y1="690.665" y2="712.311"/><linearGradient xmlns:xlink="http://www.w3.org/1999/xlink" id="t-i6" x1="529.818" x2="77.257" xlink:href="#c-i6" y1="43.415" y2="599.451"/><linearGradient id="u-i6" gradientUnits="userSpaceOnUse" x1="137.809" x2="251.258" y1="561.944" y2="392.958"><stop offset="0" stop-color="#ff4a8b" fill="#000000"/><stop offset=".134" stop-color="#fa4b8e" fill="#000000"/><stop offset=".291" stop-color="#ec4f95" fill="#000000"/><stop offset=".459" stop-color="#d555a1" fill="#000000"/><stop offset=".634" stop-color="#b45db3" fill="#000000"/><stop offset=".815" stop-color="#8a68c9" fill="#000000"/><stop offset=".996" stop-color="#5875e3" fill="#000000"/></linearGradient><linearGradient xmlns:xlink="http://www.w3.org/1999/xlink" id="v-i6" x1="157.394" x2="289.394" xlink:href="#o-i6" y1="621.581" y2="88.248"/><linearGradient xmlns:xlink="http://www.w3.org/1999/xlink" id="w-i6" x1="369.581" x2="94.804" xlink:href="#h-i6" y1="639.579" y2="476.465"/><linearGradient xmlns:xlink="http://www.w3.org/1999/xlink" id="x-i6" x1="293.825" x2="281.392" xlink:href="#h-i6" y1="569.834" y2="562.454"/><radialGradient xmlns:xlink="http://www.w3.org/1999/xlink" id="y-i6" cx="240.777" cy="476.518" r="202.744" xlink:href="#d-i6"/><linearGradient id="z-i6" gradientUnits="userSpaceOnUse" x1="-16.691" x2="101.976" y1="319.833" y2="678.499"><stop offset="0" stop-color="#ff4a8b" fill="#000000"/><stop offset=".593" stop-color="#2c25a3" stop-opacity=".3" fill="#000000"/></linearGradient><linearGradient xmlns:xlink="http://www.w3.org/1999/xlink" id="A-i6" x1="61.905" x2="106.35" xlink:href="#o-i6" y1="309.51" y2="156.621"/><linearGradient xmlns:xlink="http://www.w3.org/1999/xlink" id="B-i6" x1="217.71" x2="311.736" xlink:href="#c-i6" y1="21.099" y2="21.099"/><linearGradient id="C-i6" gradientUnits="userSpaceOnUse" x1="139.469" x2="224.469" y1="-101.172" y2="179.828"><stop offset=".296" stop-color="#6da2ef" fill="#000000"/><stop offset=".604" stop-color="#352acf" stop-opacity="0" fill="#000000"/></linearGradient><circle cx="69.187" cy="640.711" fill="#030a24" r="6.5"/><path d="m271.928 353.757a4.5 4.5 0 0 1 4.5 4.5v16.636a0 0 0 0 1 0 0h-9a0 0 0 0 1 0 0v-16.636a4.5 4.5 0 0 1 4.5-4.5z" fill="#030a24"/><path d="m270.928 336.795h2v24.827h-2z" fill="#030a24"/><path d="m0 485.336 46.132 26.324v-117.003l-46.132-26.325z" fill="#352acf"/><path d="m46.132 437.905a241.682 241.682 0 0 0 -46.132 36.551v10.88l46.132 26.324z" fill="url(#a-i6)"/><path d="m0 485.336 46.132 26.324v-117.003l-46.132-26.325z" fill="none"/><path d="m0 368.332 46.132 26.325h300.386l-46.132-26.325z" fill="url(#b-i6)"/><path d="m167.513 546.211 34.783 19.848h88.218l-34.783-19.848z" fill="url(#c-i6)"/><path d="m82.504 26.324h229.232v117.004h-229.232z" fill="#352acf"/><path d="m36.372 117.004 46.132 26.324v-117.004l-46.132-26.324z" fill="url(#d-i6)"/><path d="m36.372 0 46.132 26.324h229.232l-46.132-26.324z" fill="#ff7bb1"/><path d="m97.728 143.328h214.008v-117h-71.585a225.014 225.014 0 0 0 -142.423 117z" fill="url(#e-i6)"/><path d="m115.513 113.53c1.942-.125 3.644-.226 4.37-.3 52.751-5.09 93.69-4.512 101.338-20.36 4.417-9.153-3.645-14.856.463-25.45 8.506-21.94 70.8-16.658 76.35-26.838.917-1.682 1.277-7.428-1.481-14.262h-56.394a224.8 224.8 0 0 0 -124.646 87.21z" fill="#ff4a8b" opacity=".8"/><path d="m257 143.328h54.738v-37.388c-13.5.45-30.865 7.683-42.306 18.972a57.619 57.619 0 0 0 -12.432 18.416z" fill="#ff4a8b" opacity=".8"/><path d="m240.15 26.324a225.015 225.015 0 0 0 -142.422 117h5.35c29.17-59.536 82.232-103.738 150.674-117z" fill="#fff" opacity=".46"/><path d="m36.498 194.088h92.567v92.567h-92.567z" fill="url(#f-i6)"/><path d="m0 265.829 36.498 20.827v-92.568l-36.498-20.826z" fill="url(#g-i6)"/><path d="m0 173.262 36.498 20.826h92.567l-36.498-20.826z" fill="url(#h-i6)"/><circle cx="82.781" cy="240.372" fill="#ff4a8b" r="26.95"/><path d="m225.981 216.259h120.537v120.537h-120.537z" fill="url(#i-i6)"/><path d="m178.456 309.676 47.525 27.119v-120.536l-47.525-27.12z" fill="url(#j-i6)"/><path d="m226.069 279.018-47.459-27-.01-4.75 47.329 26.882z" fill="#65c400"/><path d="m178.456 189.139 47.525 27.12h120.537l-47.525-27.12z" fill="url(#k-i6)"/><path d="m283.444 216.185-47.112-27.167 4.889.141 47.526 27.119z" fill="#c8ff00"/><path d="m283.749 216.259h5v120.536h-5z" fill="#65c400"/><path d="m225.981 274.027h120.537v5h-120.537z" fill="#65c400"/><path d="m323.09 202.883h-120.917l-4.896-2.976h120.5z" fill="#c8ff00"/><path d="m202.181 323.074-5-2.464v-120.717l5 2.986z" fill="#65c400"/><path d="m50.273 563.605h77.311v77.311h-77.311z" fill="#c8ff00"/><path d="m19.79 623.522 30.483 17.394v-77.311l-30.483-17.394z" fill="url(#l-i6)"/><path d="m50.272 603.5a.991.991 0 0 1 -.495-.132l-30.483-17.394a1 1 0 0 1 .992-1.737l30.483 17.395a1 1 0 0 1 -.5 1.868z" fill="#65c400"/><path d="m19.79 546.211 30.483 17.394h77.311l-30.482-17.394z" fill="url(#m-i6)"/><path d="m88.928 564.605a1 1 0 0 1 -.495-.131l-30.483-17.4a1 1 0 1 1 .993-1.736l30.482 17.394a1 1 0 0 1 -.5 1.868z" fill="#c8ff00"/><path d="m88.929 641.916a1 1 0 0 1 -1-1v-77.311a1 1 0 0 1 2 0v77.311a1 1 0 0 1 -1 1z" fill="#65c400"/><path d="m127.584 603.261h-77.311a1 1 0 0 1 0-2h77.311a1 1 0 1 1 0 2z" fill="#65c400"/><path d="m110.716 554.979h-77.311a1 1 0 1 1 0-2h77.311a1 1 0 1 1 0 2z" fill="#c8ff00"/><path d="m33.405 632.291a1 1 0 0 1 -1-1v-77.312a1 1 0 0 1 2 0v77.312a1 1 0 0 1 -1 1z" fill="#65c400"/><path d="m202.296 566.059h88.218v88.218h-88.218z" fill="#6da2ef"/><path d="m226.485 597.1a53.649 53.649 0 0 0 64.029 17.031v-48.072h-74.783a53.374 53.374 0 0 0 10.754 31.041z" fill="url(#n-i6)"/><path d="m202.3 604.169a178.31 178.31 0 0 1 17.612-18.469c-.222-.527-.427-1.059-.631-1.59-6.607 6.137-12.334 11.908-16.985 17.1z" fill="url(#o-i6)"/><path d="m290.514 570.209v-4.15h-6.1q-4.382 3.426-8.976 6.89c-32.024 24.1-61.381 41.31-73.143 43.487v8.364c16.441-5.266 45.956-22.587 77.374-46.228q5.573-4.19 10.845-8.363z" fill="url(#p-i6)"/><path d="m202.296 566.059h88.218v88.218h-88.218z" fill="none"/><path d="m167.513 634.429 34.783 19.848v-88.218l-34.783-19.848z" fill="url(#q-i6)"/><path d="m122.147 686.283h103.834v51.917h-103.834z" fill="#c8ff00"/><path d="m205.511 674.602h-51.917-2.659-49.258l20.47 11.681h51.917 51.917z" fill="url(#r-i6)"/><path d="m101.677 726.519 20.47 11.681v-51.917l-20.47-11.681z" fill="url(#s-i6)"/><path d="m122.147 712.9a.5.5 0 0 1 -.248-.065l-20.47-11.681a.5.5 0 1 1 .5-.869l20.47 11.681a.5.5 0 0 1 -.248.934z" fill="#65c400"/><path d="m148.106 686.783a.5.5 0 0 1 -.248-.065l-20.471-11.681a.5.5 0 1 1 .5-.869l20.471 11.681a.5.5 0 0 1 -.248.934z" fill="#c8ff00"/><path d="m200.023 738.7a.5.5 0 0 1 -.5-.5v-51.917a.5.5 0 0 1 1 0v51.917a.5.5 0 0 1 -.5.5z" fill="#65c400"/><path d="m225.981 712.741h-51.917a.5.5 0 1 1 0-1h51.917a.5.5 0 0 1 0 1z" fill="#65c400"/><path d="m148.106 738.7a.5.5 0 0 1 -.5-.5v-51.917a.5.5 0 0 1 1 0v51.917a.5.5 0 0 1 -.5.5z" fill="#65c400"/><path d="m174.064 712.741h-51.917a.5.5 0 0 1 0-1h51.917a.5.5 0 0 1 0 1z" fill="#65c400"/><path d="m162.736 680.319h-51.917a.5.5 0 1 1 0-1h51.917a.5.5 0 0 1 0 1z" fill="#c8ff00"/><path d="m200.023 686.783a.5.5 0 0 1 -.248-.065l-20.47-11.681a.5.5 0 1 1 .5-.869l20.47 11.681a.5.5 0 0 1 -.248.934z" fill="#c8ff00"/><path d="m174.064 686.783a.5.5 0 0 1 -.248-.065l-20.47-11.681a.5.5 0 1 1 .5-.869l20.47 11.681a.5.5 0 0 1 -.248.934z" fill="#c8ff00"/><path d="m214.654 680.319h-51.918a.5.5 0 0 1 0-1h51.918a.5.5 0 0 1 0 1z" fill="#c8ff00"/><path d="m110.819 732.236a.5.5 0 0 1 -.5-.5v-51.917a.5.5 0 0 1 1 0v51.917a.5.5 0 0 1 -.5.5z" fill="#65c400"/><path d="m174.064 738.7a.5.5 0 0 1 -.5-.5v-51.917a.5.5 0 0 1 1 0v51.917a.5.5 0 0 1 -.5.5z" fill="#65c400"/><g fill="#030a24"><circle cx="227.704" cy="144.057" r="6.5"/><path d="m226.704 144.057h2v37.498h-2z"/><circle cx="332.082" cy="84.826" r="6.5"/><path d="m311.736 83.826h20.347v2h-20.347z"/><path d="m64.533 286.656a4.5 4.5 0 0 1 4.5 4.5v16.636a0 0 0 0 1 0 0h-9a0 0 0 0 1 0 0v-16.636a4.5 4.5 0 0 1 4.5-4.5z" transform="matrix(-1 -0 0 -1 129.065 594.447)"/><path d="m189.024 306.72a4.5 4.5 0 0 1 4.5 4.5v16.636a0 0 0 0 1 0 0h-9a0 0 0 0 1 0 0v-16.636a4.5 4.5 0 0 1 4.5-4.5z" transform="matrix(0 -1 1 0 -128.264 506.311)"/><path d="m63.532 123.972h2v45.362h-2z"/><path d="m228.013 497.502h2v45.361h-2z"/><path d="m72.688 497.502h2v45.361h-2z"/><path d="m189.024 318.288h-114.863a10.642 10.642 0 0 1 -10.629-10.63v-10.434h2v10.434a8.64 8.64 0 0 0 8.629 8.63h114.863z"/><path d="m93.931 706.777h-3.718a15.494 15.494 0 0 1 -13.12-7.189l-6.46-10.118a15.539 15.539 0 0 1 -2.445-8.376v-40.383h2v40.383a13.541 13.541 0 0 0 2.131 7.3l6.46 10.119a13.506 13.506 0 0 0 11.434 6.265h3.718z"/></g><path d="m46.132 394.657h300.386v117.004h-300.386z" fill="url(#t-i6)"/><path d="m346.518 478.584a240.729 240.729 0 0 0 -300.386-40.679v73.755h300.386z" fill="url(#u-i6)"/><path d="m343.5 475.439a240.715 240.715 0 0 0 -289.437-42.151 21.586 21.586 0 0 1 8.579 4.643c8.784 7.963 4.317 18.517 11.4 26.791 10.02 11.7 44.662 4.192 65.861 4.192 14.962 0 61.568-.693 93.743 12.908 9.274 3.921-2.56 21.9 20.06 28.095 27.149 7.438 33.471-19.339 50.622-26.955 9.354-4.153 22.245-7.577 39.172-7.523z" fill="url(#v-i6)"/><path d="m46.132 394.657h300.386v117.004h-300.386z" fill="none"/><ellipse cx="64.533" cy="120.899" fill="#030a24" rx="4.781" ry="8.848" transform="matrix(.95366445 -.30087225 .30087225 .95366445 -33.384 25.017)"/><path d="m110.742 701.268c-.009 0-.017.01-.027.011h-16.635a4.5 4.5 0 0 0 0 9h16.635v-.006c.01 0 .018.011.027.011.633 0 1.146-2.018 1.146-4.507s-.513-4.509-1.146-4.509z" fill="#030a24"/><path d="m78.181 556.135h.006v-16.635a4.5 4.5 0 0 0 -9 0v16.636h.007s-.007.009-.007.013c0 .5 2.015.9 4.5.9s4.5-.4 4.5-.9c.001-.005-.005-.01-.006-.014z" fill="#030a24"/><path d="m167.513 546.211 34.783 19.848h88.218l-34.783-19.848z" fill="url(#w-i6)"/><path d="m290.514 566.059-3.534-2.017q-1.272 1.006-2.565 2.017z" fill="url(#x-i6)"/><path d="m255.731 546.211h-36.672a53.9 53.9 0 0 0 -3.328 19.848h74.783z" fill="url(#y-i6)"/><path d="m233.513 556.134v-16.634a4.5 4.5 0 0 0 -4.5-4.5 4.5 4.5 0 0 0 -4.5 4.5v16.636c0 .5 2.014.9 4.5.9s4.5-.4 4.5-.9z" fill="#030a24"/><path d="m0 485.336 46.132 26.324v-117.003l-46.132-26.325z" fill="url(#z-i6)"/><path d="m68.994 185.631h.006v-16.631a4.5 4.5 0 0 0 -9 0v16.635h.007s-.007.009-.007.014c0 .494 2.015.895 4.5.895s4.5-.4 4.5-.895c0-.009 0-.013-.006-.018z" fill="#030a24"/><path d="m232.106 198.076v-16.636a4.5 4.5 0 0 0 -9 0v16.636h.007s-.007.008-.007.013c0 .5 2.015.9 4.5.9s4.5-.4 4.5-.9c.006-.005 0-.009 0-.013z" fill="#030a24"/><path d="m215.326 185.631h.005l-.002.006" fill="#030a24"/><path d="m68.364 263.136c5.981-2.75 29.988-14.892 37.746-35.84.033-.088.059-.166.091-.253a27.07 27.07 0 0 0 -4.762-6.108c-2.736 10-12 26.034-43.074 30.846a27.047 27.047 0 0 0 9.999 11.355z" fill="url(#A-i6)"/><ellipse cx="199.471" cy="317.303" fill="#030a24" rx="2.333" ry="4.507"/><path d="m266.555 779.407h-46a9.678 9.678 0 0 1 -9.667-9.667v-31.777h2v31.777a7.675 7.675 0 0 0 7.667 7.667h46z" fill="#030a24"/><circle cx="266.221" cy="777.629" fill="#030a24" r="4.889"/><path d="m217.71 26.324h94.026l-18.036-10.289c-2.7-.1-5.408-.162-8.131-.162a224.365 224.365 0 0 0 -67.859 10.451z" fill="url(#B-i6)"/><path d="m284.164 26.324a34.023 34.023 0 0 0 -5.264-10.345 224.063 224.063 0 0 0 -61.133 10.345z" fill="#ff7bb1"/><path d="m36.372 0 46.132 26.324h229.232l-46.132-26.324z" fill="url(#C-i6)"/></svg></g><!--ITEM: Illustration component 7--><g transform="translate(377.77777777777777 2302.777777777778) rotate(0.0 272.2222222222222 266.6666666666665)  scale(2.7733771640124307 2.768118198647081)"><svg width="196.311" height="192.67" viewBox="0.0 0.0 196.311 192.67"><linearGradient id="a-i7" gradientUnits="userSpaceOnUse" x1="212.292" x2="134.181" y1="21.355" y2="58.688"><stop offset=".01" stop-color="#6da2ef" fill="#000000"/><stop offset="1" stop-color="#fff" fill="#000000"/></linearGradient><linearGradient xmlns:xlink="http://www.w3.org/1999/xlink" id="b-i7" x1="213.396" x2="135.285" xlink:href="#a-i7" y1="23.665" y2="60.998"/><linearGradient xmlns:xlink="http://www.w3.org/1999/xlink" id="c-i7" x1="211.019" x2="132.908" xlink:href="#a-i7" y1="18.691" y2="56.025"/><linearGradient xmlns:xlink="http://www.w3.org/1999/xlink" id="d-i7" x1="-26.02" x2="37.234" xlink:href="#a-i7" y1="204.477" y2="156.752"/><linearGradient xmlns:xlink="http://www.w3.org/1999/xlink" id="e-i7" x1="53.881" x2="78.713" xlink:href="#a-i7" y1="152.449" y2="152.449"/><radialGradient id="f-i7" cx="116.983" cy="13.255" gradientUnits="userSpaceOnUse" r="50.003"><stop offset="0" stop-color="#2c25a3" fill="#000000"/><stop offset="1" stop-color="#030a24" fill="#000000"/></radialGradient><linearGradient xmlns:xlink="http://www.w3.org/1999/xlink" id="g-i7" x1="135.34" x2="56.878" xlink:href="#a-i7" y1="139.549" y2="53.441"/><path d="m108.076 46.514c9-.772 25.873 1.166 46.359-6.845 2.031 5.434 4.451 11.262 6.482 16.7-8.513 4.544-33.567 14.9-56.994 10.75q2.077-10.303 4.153-20.605z" fill="#6da2ef"/><path d="m159.879 37.544c4.109-2.092 4.732-2.818 9.107-5.364 3.761-2.189 6.647-4.931 10.014-7.115 3.881-1.426-.272 7.986-4.311 9.412l13.305 10.692c-3.672 1.762-7.58 3.517-11.721 5.227-4.385 1.811-5.4 2.086-9.458 3.487-8.026 3.566-12.398-14.04-6.936-16.339z" fill="url(#a-i7)"/><path d="m172.53 33.907 8.022 14.671s17.739-7.7 15.451-10.094c-1.233-1.291-6.708 1.9-10.385 3.438 9.211-4.9 11.129-7.063 10.443-8.015-1.056-1.468-4.049.352-12.739 4.688 9.805-5.627 12.61-7.557 11.544-9.12-.88-1.291-3.616.441-14.422 5.4" fill="url(#b-i7)"/><path d="m179.556 36.909c9.64-5.35 13.124-7.572 11.39-9.441-1.062-1.146-8.557 2.8-18.416 6.439" fill="url(#c-i7)"/><path d="m166.815 53.883c-4.165 2.522-9.719-15.518-6.936-16.339l-5.171 1.96c-2.783.847 1.773 18.568 6.523 16.728z" fill="#ff4a8b"/><path d="m171.683 44.088a.5.5 0 0 1 -.294-.9c2.582-1.878 2.8-8.653 2.8-8.721a.5.5 0 0 1 .175-.367 43.689 43.689 0 0 0 3.892-3.6.5.5 0 0 1 .84.543 39.569 39.569 0 0 1 -3.916 3.677c-.06 1.266-.484 7.3-3.2 9.277a.5.5 0 0 1 -.297.091z" fill="#030a24"/><path d="m180.445 35.123a.25.25 0 0 1 -.1-.477c2.244-1.03 4.14-1.92 5.743-2.673 6.444-3.024 8.175-3.837 8.99-2.639a.25.25 0 1 1 -.414.281c-.577-.847-2.7.151-8.363 2.811-1.6.753-3.5 1.645-5.747 2.675a.256.256 0 0 1 -.109.022z" fill="#030a24"/><path d="m183.321 38.845a.25.25 0 0 1 -.111-.474q1.749-.873 3.2-1.607c6.6-3.328 8.817-4.442 9.855-3a.25.25 0 1 1 -.406.293c-.789-1.1-3.258.146-9.224 3.157-.971.489-2.035 1.027-3.2 1.609a.256.256 0 0 1 -.114.022z" fill="#030a24"/><path d="m185.618 42.172a.25.25 0 0 1 -.1-.48c.9-.376 1.894-.845 2.945-1.341 3.427-1.615 6.665-3.142 7.717-2.04a.25.25 0 0 1 -.362.345c-.8-.845-4.318.817-7.141 2.147-1.057.5-2.055.97-2.966 1.35a.254.254 0 0 1 -.093.019z" fill="#030a24"/><path d="m110.076 67.882c-.079-2.117 2.206-16.556.976-19.792a25.826 25.826 0 0 0 -2.239-4.5 6.377 6.377 0 0 1 2.808-.528h.03c9.307.478.531 23.425-1.575 24.82z" fill="#fff"/><path d="m108.813 43.588c-4.89-1.3-31.2-1.793-34.279.745-2.452 6.181-4.861 12.75-7.161 19.7-2.759 8.329-5.073 16.329-7.017 23.917-7.455 7.731-16.22 23.887-26.285 48.289-2.647 6.416-32.716 29.906-33.931 33.777-1.34 6.307 7.338 19.71 9.66 21.914 1.905 1.479 5.146.511 7.571-.9a5.8 5.8 0 0 0 2.727-6.087 37.47 37.47 0 0 0 -1.666-6.557c14.45-9.265 27.8-21.84 36.264-34.54 3.46-5.19 17.891-25.623 19.929-29.452.505 2.681 5.92 14.092 7.046 16.013-2.624.923-23.105 10.82-26.975 13.439-3.142 4.873 3.522 26.953 7.413 26.549a13.785 13.785 0 0 0 3.748-1.271 4.9 4.9 0 0 0 2.7-4.484 40 40 0 0 0 -.7-6.7c5.69-2.318 24.111-12.124 35.131-18.633a10.12 10.12 0 0 0 4.583-11.5c-3.678-12.854-10.243-29.906-8.4-36.14 2.361-8.639 11.746-18.914 13.545-35.314.41-5.372-.985-13.563-3.903-12.765z" fill="#6da2ef"/><path d="m23.668 147.639c-9.721 9.025-22.737 19.861-23.528 22.377-1.34 6.307 7.338 19.71 9.66 21.914 1.905 1.479 5.146.511 7.571-.9a5.8 5.8 0 0 0 2.727-6.087 37.47 37.47 0 0 0 -1.666-6.557 138.176 138.176 0 0 0 17.454-13.3c-4.2 2.629-14.755-11.848-12.218-17.447z" fill="url(#d-i7)"/><path d="m72.771 134.492c-6.945 3.342-15.681 7.741-18.073 9.359-3.142 4.873 3.522 26.953 7.413 26.549a13.785 13.785 0 0 0 3.748-1.271 4.9 4.9 0 0 0 2.7-4.484 40 40 0 0 0 -.7-6.7c2.155-.878 6.139-2.832 10.853-5.272-5.083 1.35-10.187-14.428-5.941-18.181z" fill="url(#e-i7)"/><g fill="#c8ff00"><path d="m68.152 136.743c-1.724 5.348 1.58 15.822 5.715 18.4 1.481-.736 3.113-1.566 4.846-2.463-5.084 1.345-10.188-14.433-5.942-18.186-1.484.713-3.051 1.476-4.619 2.249z"/><path d="m14.9 192.422h-.03c-3.577-.417-7.84-8.656-9.061-11.172-2.731-5.625-4.909-12.262-3.809-14.067a.248.248 0 0 1 .344-.082.251.251 0 0 1 .082.344c-.866 1.41.815 7.377 3.83 13.585 3.137 6.461 6.459 10.636 8.67 10.894a.25.25 0 0 1 -.029.5z"/><path d="m13.588 167.152a.242.242 0 0 1 -.111-.027l-7.257-3.593a.25.25 0 1 1 .223-.447l7.111 3.521 11.62-9.606a.25.25 0 1 1 .318.385l-11.745 9.714a.249.249 0 0 1 -.159.053z"/><path d="m17.228 178.887c-2.348 0-5.19-2.192-7.319-4.224a35.2 35.2 0 0 1 -6.66-8.522.25.25 0 1 1 .451-.217c2.1 4.356 10.644 14.033 14.632 12.238a.25.25 0 1 1 .2.457 3.176 3.176 0 0 1 -1.304.268z"/><path d="m23.668 147.639c-1.237 1.147-2.526 2.324-3.837 3.51-.636 5.764 6.35 16.087 11.269 18.022 1.628-1.331 3.232-2.685 4.788-4.079-4.2 2.623-14.757-11.854-12.22-17.453z"/><path d="m63.666 170.515a.5.5 0 0 1 -.248-.066c-2.206-1.259-4.87-8.24-6.412-14.192-.831-3.208-2.579-10.972-.871-13.788a.5.5 0 1 1 .855.52c-1.032 1.7-.655 6.689.984 13.017 1.736 6.7 4.346 12.664 5.94 13.574a.5.5 0 0 1 -.248.935z"/><path d="m67.366 158.511a3.545 3.545 0 0 1 -2.035-.745c-3.7-2.624-7.44-12.088-7.785-15.811a.5.5 0 0 1 .452-.544.507.507 0 0 1 .544.453c.322 3.476 3.936 12.654 7.367 15.086a2.25 2.25 0 0 0 1.83.515.5.5 0 0 1 .243.971 2.564 2.564 0 0 1 -.616.075z"/></g><path d="m80.1 131.57a.5.5 0 0 1 -.19-.963l7.468-3.05a.5.5 0 1 1 .379.926l-7.468 3.049a.487.487 0 0 1 -.189.038z" fill="#fff"/><path d="m70.978 120.629a.5.5 0 0 1 -.425-.764l6.864-11.045a.5.5 0 1 1 .85.527l-6.867 11.046a.5.5 0 0 1 -.422.236z" fill="#fff"/><path d="m60.356 87.95c.9 3.422 34.145 9.224 38.5 6.451l1.2-5.314c-5.469 2.929-35.622-3.978-37.735-6.969z" fill="#fff"/><path d="m90.581 54.343h15.08v1h-15.08z" fill="#fff"/><path d="m90.581 59.841h15.08v1h-15.08z" fill="#fff"/><path d="m74.545 42.618c0 .538 7.905.975 17.658.975s17.657-.437 17.657-.975l.041.027a25 25 0 1 0 -35.418-.02z" fill="url(#f-i7)"/><path d="m110.544 8.021a24.993 24.993 0 1 0 -36.062 34.6l.061-.007c0 .029.033.059.081.088a.419.419 0 0 0 .043.023 1.346 1.346 0 0 0 .216.078l.026.008c.1.028.232.054.374.081l.143.025c.124.021.261.041.41.061l.129.019c.183.023.388.046.6.069l.287.028c.151.015.31.029.474.043l.386.033q.33.026.689.05l.476.031.455.028q.461.027.956.052l.444.022.661.03.462.019q.668.027 1.381.05l.283.009a22.42 22.42 0 0 1 -4.971-8.388 22 22 0 0 1 -.806-10.52c2.926-16.228 21.007-19.506 32.802-16.532z" fill="#6da2ef"/><path d="m77.748 26.058a1.515 1.515 0 0 1 -.267-.024 1.5 1.5 0 0 1 -1.211-1.742 20.976 20.976 0 0 1 9.43-14.283c8.063-5.2 18.623-5.105 25.214-3.442a1.5 1.5 0 1 1 -.732 2.908c-6.012-1.515-15.6-1.626-22.856 3.056a17.815 17.815 0 0 0 -8.1 12.292 1.5 1.5 0 0 1 -1.478 1.235z" fill="#c8ff00"/><ellipse cx="73.397" cy="25.114" fill="#c8ff00" rx="11.574" ry="7.034" transform="matrix(.09329162 -.99563883 .99563883 .09329162 41.544 95.848)"/><ellipse cx="71.019" cy="24.892" fill="#c8ff00" rx="8.374" ry="5.662" transform="matrix(.093 -.996 .996 .093 39.61 93.278)"/><path d="m70.607 33.746c-.139 0-.278-.007-.416-.019a.5.5 0 0 1 -.452-.545.511.511 0 0 1 .545-.451 4.462 4.462 0 0 0 3.783-1.888 10.151 10.151 0 0 0 2.091-5.47c.406-4.322-1.57-8.055-4.405-8.321a.5.5 0 1 1 .094-1c3.383.317 5.764 4.539 5.307 9.411a11.15 11.15 0 0 1 -2.315 6.011 5.552 5.552 0 0 1 -4.232 2.272z" fill="#030a24"/><path d="m110.747 45.124v-3.41c0 .643-8.3 1.164-18.545 1.164s-18.545-.521-18.545-1.164v3.41c0 .643 8.3 1.164 18.545 1.164s18.545-.521 18.545-1.164z" fill="#c8ff00"/><path d="m72.6 45.558-2.009-1.431-1.732.8c-4.659 1.335-15.959 13.063-24.608 22.526a9.951 9.951 0 0 0 5.432 16.474 166.29 166.29 0 0 0 21.738 2.662l7.615-13.647a133.447 133.447 0 0 1 -14-3.261c1.6-1.849 6.578-6.941 7.821-9.5q.593-1.907 1.186-3.813l.358-7.788z" fill="#6da2ef"/><path d="m69.553 64.656c4.855-6.487 4.421-20.529-.7-19.727-.126-.749.737-1.39 1.917-1.732a4.428 4.428 0 0 1 5.568 4.224c.098 5.861-2.503 14.779-6.785 17.235z" fill="#fff"/><path d="m49.9 61.376a3.36 3.36 0 0 0 .514.572c2.384 2.064 7.159.452 10.666-3.6 3.12-3.6 4.178-7.921 2.7-10.284a154.48 154.48 0 0 0 -13.88 13.312z" fill="#fff"/><path d="m71.421 86.589h12.261s1.457 6.175 3.34 6.854a24.249 24.249 0 0 0 3.082.885 3.39 3.39 0 0 0 3.718-2.039 18.26 18.26 0 0 0 1.161-14.034c-1.673-2.75-5.543-4.376-8.748-4.665l-7.2-.648z" fill="url(#g-i7)"/><path d="m72.887 71.563c4.339.456-1.736 15.79-4.167 14.869l6.1.329c2.943.261 7.563-12.89 3.949-13.97z" fill="#ff4a8b"/><path d="m73.632 72.583a.544.544 0 0 1 -.119-.014l-16.275-4.005a.5.5 0 0 1 .239-.971l16.274 4a.5.5 0 0 1 -.119.985z" fill="#fff"/></svg></g></svg>