<svg width="60" height="60" viewBox="0 0 60 60" fill="none" xmlns="http://www.w3.org/2000/svg">
<circle cx="30" cy="30" r="30" fill="#640BDB"/>
<path d="M40 20H26C24.896 20 24 20.896 24 22V26H40V29.5C40 29.776 39.776 30 39.5 30H38V32H40C41.104 32 42 31.104 42 30V22C42 20.896 41.104 20 40 20ZM40 23H26V22.5C26 22.224 26.224 22 26.5 22H39.5C39.776 22 40 22.224 40 22.5V23ZM34 28H20C18.896 28 18 28.896 18 30V38C18 39.104 18.896 40 20 40H34C35.104 40 36 39.104 36 38V30C36 28.896 35.104 28 34 28ZM23 38H21V37H23V38ZM26 38H24V37H26V38ZM26.32 34.623C25.937 34.862 25.484 35 25 35C23.619 35 22.5 33.881 22.5 32.5C22.5 31.119 23.619 30 25 30C25.484 30 25.937 30.138 26.32 30.377C25.789 30.929 25.463 31.677 25.463 32.5C25.463 33.324 25.789 34.071 26.32 34.623ZM30 38H28V37H30V38ZM29 35C27.619 35 26.5 33.881 26.5 32.5C26.5 31.119 27.619 30 29 30C30.381 30 31.5 31.119 31.5 32.5C31.5 33.881 30.381 35 29 35ZM33 38H31V37H33V38Z" fill="#F2F2F2"/>
</svg>
