<svg id="visual" viewBox="0 0 900 600" width="900" height="600" xmlns="http://www.w3.org/2000/svg" xmlns:xlink="http://www.w3.org/1999/xlink" version="1.1"><path d="M0 139L15 148C30 157 60 175 90 194C120 213 150 233 180 245C210 257 240 261 270 260C300 259 330 253 360 228C390 203 420 159 450 147C480 135 510 155 540 167C570 179 600 183 630 202C660 221 690 255 720 256C750 257 780 225 810 209C840 193 870 193 885 193L900 193L900 0L885 0C870 0 840 0 810 0C780 0 750 0 720 0C690 0 660 0 630 0C600 0 570 0 540 0C510 0 480 0 450 0C420 0 390 0 360 0C330 0 300 0 270 0C240 0 210 0 180 0C150 0 120 0 90 0C60 0 30 0 15 0L0 0Z" fill="#200049"></path><path d="M0 295L15 317C30 339 60 383 90 389C120 395 150 363 180 359C210 355 240 379 270 393C300 407 330 411 360 405C390 399 420 383 450 392C480 401 510 435 540 431C570 427 600 385 630 373C660 361 690 379 720 396C750 413 780 429 810 424C840 419 870 393 885 380L900 367L900 191L885 191C870 191 840 191 810 207C780 223 750 255 720 254C690 253 660 219 630 200C600 181 570 177 540 165C510 153 480 133 450 145C420 157 390 201 360 226C330 251 300 257 270 258C240 259 210 255 180 243C150 231 120 211 90 192C60 173 30 155 15 146L0 137Z" fill="#3b0268"></path><path d="M0 427L15 445C30 463 60 499 90 502C120 505 150 475 180 475C210 475 240 505 270 517C300 529 330 523 360 508C390 493 420 469 450 474C480 479 510 513 540 521C570 529 600 511 630 499C660 487 690 481 720 491C750 501 780 527 810 519C840 511 870 469 885 448L900 427L900 365L885 378C870 391 840 417 810 422C780 427 750 411 720 394C690 377 660 359 630 371C600 383 570 425 540 429C510 433 480 399 450 390C420 381 390 397 360 403C330 409 300 405 270 391C240 377 210 353 180 357C150 361 120 393 90 387C60 381 30 337 15 315L0 293Z" fill="#5a0386"></path><path d="M0 601L15 601C30 601 60 601 90 601C120 601 150 601 180 601C210 601 240 601 270 601C300 601 330 601 360 601C390 601 420 601 450 601C480 601 510 601 540 601C570 601 600 601 630 601C660 601 690 601 720 601C750 601 780 601 810 601C840 601 870 601 885 601L900 601L900 425L885 446C870 467 840 509 810 517C780 525 750 499 720 489C690 479 660 485 630 497C600 509 570 527 540 519C510 511 480 477 450 472C420 467 390 491 360 506C330 521 300 527 270 515C240 503 210 473 180 473C150 473 120 503 90 500C60 497 30 461 15 443L0 425Z" fill="#7b00a5"></path></svg>